<svg xmlns="http://www.w3.org/2000/svg" viewBox="0 0 750 500"><g id="freepik--background-complete--inject-93"><path d="M67.91,60.93,81,60.65l6.66-.11c2.23,0,4.47,0,6.7-.06h.44v.45l.06,11.19v.5h-.5l-13.24-.06c-4.41,0-8.83-.12-13.24-.17h-.28v-.27c0-1.9.08-3.79.13-5.66Zm0,0,.14,5.65c0,1.87.11,3.71.13,5.54l-.27-.27c4.41-.06,8.83-.16,13.24-.17l13.24-.06-.5.5,0-11.19.45.44c-2.18,0-4.36,0-6.55,0l-6.58-.11Z" style="fill:#ebebeb"></path><path d="M82.68,46.82l13.13-.28,6.66-.11c2.22,0,4.46,0,6.69-.06h.44v.45l0,11.19v.5h-.5l-13.24-.06c-4.41,0-8.83-.12-13.24-.17H82.4V58c0-1.9.08-3.79.13-5.65Zm0,0,.14,5.65c.05,1.87.11,3.71.13,5.54l-.27-.27c4.41-.06,8.83-.16,13.24-.17l13.24-.06-.5.5.06-11.19.44.44c-2.18,0-4.36,0-6.54,0L96,47.1Z" style="fill:#ebebeb"></path><path d="M105.06,217.84l13.12-.28,6.67-.11c2.22,0,4.46,0,6.69,0H132v.45L132,229v.5h-.5l-13.24-.06c-4.41,0-8.83-.11-13.24-.17h-.28V229c0-1.9.08-3.79.13-5.65Zm0,0,.14,5.66c0,1.86.11,3.7.13,5.53l-.27-.27c4.41,0,8.83-.16,13.24-.17l13.24-.06-.5.5.05-11.19.45.45c-2.18,0-4.36,0-6.55-.06l-6.58-.11Z" style="fill:#ebebeb"></path><path d="M119.83,203.73l13.13-.28,6.66-.11c2.22-.05,4.46,0,6.69-.05h.45v.45l.05,11.19v.5h-.5l-13.24-.06c-4.41,0-8.83-.11-13.24-.17h-.27v-.27c0-1.9.08-3.78.13-5.65Zm0,0,.14,5.66c0,1.86.12,3.7.13,5.53l-.27-.27c4.41-.05,8.83-.16,13.24-.16l13.24-.07-.5.5.06-11.19.44.45c-2.18,0-4.36,0-6.54-.06l-6.58-.11Z" style="fill:#ebebeb"></path><path d="M53.14,46.82l13.12-.28,6.66-.11c2.23,0,4.47,0,6.7-.06h.44v.45L80.12,58v.5h-.5l-13.24-.06c-4.42,0-8.83-.12-13.24-.17h-.28V58c0-1.9.09-3.79.13-5.65Zm0,0,.14,5.65c0,1.87.11,3.71.13,5.54l-.27-.27c4.41-.06,8.82-.16,13.24-.17l13.24-.06-.5.5,0-11.19.45.44c-2.18,0-4.36,0-6.55,0l-6.58-.11Z" style="fill:#ebebeb"></path><path d="M470.39,84l-13.13.28-6.66.11c-2.23,0-4.46,0-6.69.06h-.45V84l0-11.19v-.5h.51l13.24.06c4.41,0,8.82.12,13.24.17h.27v.27c0,1.9-.09,3.79-.13,5.65Zm0,0-.15-5.65c0-1.87-.11-3.71-.13-5.54l.28.27c-4.42.06-8.83.16-13.24.17l-13.24.06.49-.5,0,11.19-.44-.44c2.18,0,4.35,0,6.54,0l6.58.11Z" style="fill:#ebebeb"></path><path d="M682.09,389.32,669,389.6l-6.66.11c-2.23.05-4.47,0-6.7.05h-.44v-.45l-.06-11.19v-.5h.5l13.24.06c4.41,0,8.83.11,13.24.17h.28v.27c0,1.9-.08,3.79-.13,5.65Zm0,0-.14-5.65c-.05-1.87-.11-3.71-.13-5.54l.27.27c-4.41.05-8.83.16-13.24.17l-13.24.06.5-.5-.05,11.19-.45-.45c2.18,0,4.36,0,6.55.06l6.58.11Z" style="fill:#ebebeb"></path><path d="M696.86,403.43l-13.12.28-6.66.11c-2.23.05-4.47,0-6.7.05h-.44v-.45l-.06-11.19v-.5h.5l13.24.06c4.42,0,8.83.11,13.24.17h.28v.27c0,1.9-.09,3.79-.13,5.65Zm0,0-.14-5.66c0-1.86-.11-3.7-.13-5.53l.27.27c-4.41.05-8.82.16-13.24.17l-13.24.06.5-.5,0,11.19-.45-.45c2.18,0,4.36,0,6.55.06l6.58.11Z" style="fill:#ebebeb"></path><path d="M94.62,403.43l-13.13.28-6.66.11c-2.23.05-4.46,0-6.69.05h-.45v-.45l0-11.19v-.5h.51l13.24.06c4.41,0,8.82.11,13.24.17h.27v.27c0,1.9-.09,3.79-.13,5.65Zm0,0-.15-5.66c0-1.86-.11-3.7-.13-5.53l.28.27c-4.42.05-8.83.16-13.24.17l-13.24.06.49-.5,0,11.19-.44-.45c2.18,0,4.35,0,6.54.06l6.58.11Z" style="fill:#ebebeb"></path><path d="M655.5,46.82l13.12-.28,6.66-.11c2.23,0,4.47,0,6.7-.06h.44v.45L682.48,58v.5H682l-13.24-.06c-4.42,0-8.83-.12-13.24-.17h-.28V58c0-1.9.09-3.79.14-5.65Zm0,0,.14,5.65c0,1.87.11,3.71.13,5.54l-.27-.27c4.41-.06,8.82-.16,13.24-.17L682,57.51l-.5.5,0-11.19.45.44c-2.18,0-4.36,0-6.55,0l-6.58-.11Z" style="fill:#ebebeb"></path><polygon points="508.7 380.49 695.6 380.49 699.48 303.8 504.81 303.8 508.7 380.49" style="fill:#ebebeb"></polygon><path d="M686.74,338.9H608.6l-1.46-26.62h81.31ZM609.5,338h76.35l1.59-24.74H608.13Z" style="fill:#dbdbdb"></path><path d="M685.3,369.53H611.66l-1.19-24H686.8Zm-72.74-.94h71.85l1.38-22.15H611.46Z" style="fill:#dbdbdb"></path><path d="M655.19,328.48H642.06l-.82-6.43H656Zm-12.3-1h11.47L655,323H642.31Z" style="fill:#dbdbdb"></path><path d="M655.19,360.72H642.06l-.82-6.42H656Zm-12.3-.94h11.47l.59-4.53H642.31Z" style="fill:#dbdbdb"></path><path d="M594.83,338.9H516.69l-1.46-26.62h81.31ZM517.59,338H594l1.58-24.74H516.22Z" style="fill:#dbdbdb"></path><path d="M593.39,369.53H519.75l-1.19-24h76.33Zm-72.74-.94H592.5l1.39-22.15H519.55Z" style="fill:#dbdbdb"></path><path d="M563.29,328.48H550.16l-.83-6.43h14.78Zm-12.31-1h11.48L563,323H550.4Z" style="fill:#dbdbdb"></path><path d="M563.29,360.72H550.16l-.83-6.42h14.78ZM551,359.78h11.48l.58-4.53H550.4Z" style="fill:#dbdbdb"></path><polygon points="525.46 380.48 524.29 388.84 521.92 405.63 517.31 405.63 517.31 380.48 525.46 380.48" style="fill:#ebebeb"></polygon><polygon points="525.46 380.48 524.29 388.84 517.31 388.84 517.31 380.48 525.46 380.48" style="fill:#dbdbdb"></polygon><polygon points="678.84 380.48 680.01 388.84 682.37 405.63 686.99 405.63 686.99 380.48 678.84 380.48" style="fill:#ebebeb"></polygon><polygon points="678.84 380.48 680.01 388.84 686.99 388.84 686.99 380.48 678.84 380.48" style="fill:#dbdbdb"></polygon><rect x="641.06" y="68.88" width="56.6" height="68.65" style="fill:#ebebeb"></rect><rect x="647.52" y="75.14" width="43.66" height="56.12" style="fill:#fff"></rect><rect x="647.52" y="75.14" width="1.7" height="56.12" style="fill:#dbdbdb"></rect><rect x="697.65" y="68.88" width="1.7" height="68.65" style="fill:#dbdbdb"></rect><rect x="662.15" y="82.88" width="10.3" height="30.67" style="fill:#dbdbdb"></rect><path d="M685.62,119.29H657.16v-16h28.46Zm-27.46-1h26.46v-14H658.16Z" style="fill:#ebebeb"></path><rect x="612.76" y="161.96" width="56.6" height="68.65" style="fill:#ebebeb"></rect><rect x="619.22" y="168.23" width="43.66" height="56.12" style="fill:#fff"></rect><rect x="619.22" y="168.23" width="1.7" height="56.12" style="fill:#dbdbdb"></rect><rect x="669.35" y="161.96" width="1.7" height="68.65" style="fill:#dbdbdb"></rect><rect x="636.83" y="182.73" width="8.82" height="22.3" style="fill:#ebebeb"></rect><path d="M655.43,212.16H630.74V195.79h24.69Zm-23.69-1h22.69V196.79H631.74Z" style="fill:#dbdbdb"></path><path d="M97.82,287.09V457.8H201V287.09Zm9.37,63.27h84.45V394.8H107.19Zm0-55h84.45v44.44H107.19Z" style="fill:#dbdbdb"></path><rect x="51.15" y="287.09" width="46.66" height="170.7" transform="translate(148.97 744.88) rotate(180)" style="fill:#ebebeb"></rect><rect x="171.57" y="295.33" width="20.07" height="44.44" transform="translate(363.21 635.1) rotate(180)" style="fill:#ebebeb"></rect><path d="M191.36,447.33H106.94V404.46h84.42Zm-83.92-.5h83.42V405H107.44Z" style="fill:#ebebeb"></path><rect x="140.81" y="416.63" width="16.67" height="6.09" transform="translate(298.3 839.36) rotate(180)" style="fill:#ebebeb"></rect><rect x="171.57" y="350.36" width="20.07" height="44.44" transform="translate(363.21 745.16) rotate(180)" style="fill:#ebebeb"></rect><rect x="105.31" y="367.25" width="40.97" height="14.12" transform="translate(500.11 248.51) rotate(90)" style="fill:#a6a6a6"></rect><rect x="121.38" y="376.74" width="8.84" height="14.12" transform="translate(509.6 258) rotate(90)" style="fill:#dbdbdb"></rect><rect x="123.18" y="362.58" width="5.24" height="14.12" transform="translate(495.44 243.85) rotate(90)" style="fill:#dbdbdb"></rect><rect x="90.16" y="252.76" width="35.68" height="34.29" transform="translate(216 539.81) rotate(180)" style="fill:#ebebeb"></rect><rect x="76.6" y="252.76" width="13.56" height="34.29" transform="translate(166.76 539.81) rotate(180)" style="fill:#c7c7c7"></rect><polygon points="125.84 269.9 90.16 269.9 118.03 270.79 125.84 269.9" style="fill:#c7c7c7"></polygon><polygon points="90.16 282.9 125.84 282.9 97.98 283.79 90.16 282.9" style="fill:#c7c7c7"></polygon><polygon points="125.84 260.32 103.24 260.32 123.33 261.04 125.84 260.32" style="fill:#c7c7c7"></polygon><polygon points="90.16 277.86 112.76 277.86 92.67 278.58 90.16 277.86" style="fill:#c7c7c7"></polygon><polygon points="117.28 256.5 91.79 256.5 96.04 256.93 117.28 256.5" style="fill:#c7c7c7"></polygon><polygon points="122.38 273.58 96.88 273.58 101.13 274.01 122.38 273.58" style="fill:#c7c7c7"></polygon><polygon points="106.7 263.58 90.16 263.58 87.21 264.74 106.7 263.58" style="fill:#ebebeb"></polygon><polygon points="130.4 263.58 113.86 263.58 110.91 264.74 130.4 263.58" style="fill:#ebebeb"></polygon><polygon points="109.18 278.99 125.72 278.99 128.67 280.15 109.18 278.99" style="fill:#ebebeb"></polygon><polygon points="90.16 275.08 76.88 275.08 73.93 276.23 90.16 275.08" style="fill:#c7c7c7"></polygon><polygon points="85.53 269.9 75.23 269.9 76.6 268.96 85.53 269.9" style="fill:#c7c7c7"></polygon><rect x="131.33" y="305.49" width="35.68" height="34.29" transform="translate(298.35 645.27) rotate(180)" style="fill:#ebebeb"></rect><rect x="117.77" y="305.49" width="13.56" height="34.29" transform="translate(249.11 645.27) rotate(180)" style="fill:#c7c7c7"></rect><polygon points="167.02 322.63 131.33 322.63 159.2 323.51 167.02 322.63" style="fill:#c7c7c7"></polygon><polygon points="131.33 335.63 167.02 335.63 139.15 336.52 131.33 335.63" style="fill:#c7c7c7"></polygon><polygon points="167.02 313.05 144.41 313.05 164.5 313.77 167.02 313.05" style="fill:#c7c7c7"></polygon><polygon points="131.33 330.59 153.94 330.59 133.84 331.31 131.33 330.59" style="fill:#c7c7c7"></polygon><polygon points="158.46 309.23 132.96 309.23 137.21 309.67 158.46 309.23" style="fill:#c7c7c7"></polygon><polygon points="163.55 326.31 138.06 326.31 142.3 326.74 163.55 326.31" style="fill:#c7c7c7"></polygon><polygon points="147.87 316.31 131.33 316.31 128.38 317.47 147.87 316.31" style="fill:#ebebeb"></polygon><polygon points="171.57 316.31 155.03 316.31 152.08 317.47 171.57 316.31" style="fill:#ebebeb"></polygon><polygon points="150.35 331.72 166.89 331.72 169.84 332.88 150.35 331.72" style="fill:#ebebeb"></polygon><polygon points="131.33 327.81 118.06 327.81 115.1 328.96 131.33 327.81" style="fill:#c7c7c7"></polygon><polygon points="126.7 322.63 116.4 322.63 117.77 321.69 126.7 322.63" style="fill:#c7c7c7"></polygon><rect x="107.19" y="351.09" width="11.55" height="43.71" style="fill:#ebebeb"></rect><path d="M113,359.71a2.41,2.41,0,1,0-2.4-2.4A2.4,2.4,0,0,0,113,359.71Z" style="fill:#fff"></path><path d="M113,358.68a1.38,1.38,0,1,0-1.37-1.37A1.37,1.37,0,0,0,113,358.68Z" style="fill:#a6a6a6"></path><rect x="107.64" y="376.82" width="10.63" height="11.55" transform="translate(495.56 269.63) rotate(90)" style="fill:#fff"></rect><rect x="132.86" y="385.78" width="43.71" height="9.09" style="fill:#c7c7c7"></rect><path d="M141.48,390.32a2.41,2.41,0,1,0-2.41,2.4A2.41,2.41,0,0,0,141.48,390.32Z" style="fill:#fff"></path><path d="M140.45,390.32a1.38,1.38,0,1,0-1.38,1.37A1.38,1.38,0,0,0,140.45,390.32Z" style="fill:#a6a6a6"></path><rect x="159.05" y="385.78" width="10.63" height="9.09" style="fill:#fff"></rect><rect x="235.22" width="1" height="37.56" style="fill:#c7c7c7"></rect><polygon points="258.93 59.92 257.06 64.03 214.38 64.03 212.52 59.92 230.69 47.35 240.76 47.35 258.93 59.92" style="fill:#ebebeb"></polygon><polygon points="242.02 35.23 240.76 47.35 230.69 47.35 229.43 35.23 242.02 35.23" style="fill:#dbdbdb"></polygon><polygon points="258.93 59.93 257.06 64.03 214.38 64.03 212.51 59.93 258.93 59.93" style="fill:#dbdbdb"></polygon><rect x="328.08" width="1" height="37.56" style="fill:#c7c7c7"></rect><polygon points="351.78 59.92 349.92 64.03 307.23 64.03 305.37 59.92 323.54 47.35 333.61 47.35 351.78 59.92" style="fill:#ebebeb"></polygon><polygon points="334.87 35.23 333.61 47.35 323.54 47.35 322.28 35.23 334.87 35.23" style="fill:#dbdbdb"></polygon><polygon points="351.78 59.93 349.91 64.03 307.23 64.03 305.37 59.93 351.78 59.93" style="fill:#dbdbdb"></polygon><rect x="420.93" width="1" height="37.56" style="fill:#c7c7c7"></rect><polygon points="444.63 59.92 442.77 64.03 400.08 64.03 398.22 59.92 416.39 47.35 426.46 47.35 444.63 59.92" style="fill:#ebebeb"></polygon><polygon points="427.72 35.23 426.46 47.35 416.39 47.35 415.13 35.23 427.72 35.23" style="fill:#dbdbdb"></polygon><polygon points="444.63 59.93 442.76 64.03 400.08 64.03 398.22 59.93 444.63 59.93" style="fill:#dbdbdb"></polygon><rect x="513.78" width="1" height="37.56" style="fill:#c7c7c7"></rect><polygon points="537.49 59.92 535.62 64.03 492.93 64.03 491.07 59.92 509.25 47.35 519.31 47.35 537.49 59.92" style="fill:#ebebeb"></polygon><polygon points="520.57 35.23 519.31 47.35 509.25 47.35 507.98 35.23 520.57 35.23" style="fill:#dbdbdb"></polygon><polygon points="537.48 59.93 535.62 64.03 492.93 64.03 491.07 59.93 537.48 59.93" style="fill:#dbdbdb"></polygon></g><g id="freepik--Device--inject-93"><rect x="132.09" y="86.48" width="485.82" height="325.03" rx="12.89" style="fill:#263238"></rect><rect x="166.1" y="100.2" width="418.11" height="297.23" style="fill:#fff"></rect><rect x="149.3" y="213.63" width="5.05" height="70.74" rx="1.25" style="fill:#455a64"></rect><path d="M609.77,249a9.15,9.15,0,1,1-9.14-9.15A9.15,9.15,0,0,1,609.77,249Z" style="fill:#455a64"></path><rect x="166.1" y="100.2" width="418.11" height="297.23" style="fill:#fff"></rect><rect x="166.1" y="100.2" width="418.11" height="10.21" style="fill:#455a64"></rect><path d="M174.15,105.3a2.09,2.09,0,1,1-2.09-2.09A2.09,2.09,0,0,1,174.15,105.3Z" style="fill:#c7c7c7"></path><path d="M182.7,105.3a2.1,2.1,0,1,1-2.09-2.09A2.1,2.1,0,0,1,182.7,105.3Z" style="fill:#fff"></path><path d="M191.25,105.3a2.1,2.1,0,1,1-2.1-2.09A2.1,2.1,0,0,1,191.25,105.3Z" style="fill:#7E57C2"></path><path d="M198.24,132.77a.62.62,0,0,1,.86-.08,3.9,3.9,0,0,0,2.25.91,2.51,2.51,0,0,0,1.47-.44,1.07,1.07,0,0,0,.51-.85.67.67,0,0,0-.11-.37,1.07,1.07,0,0,0-.35-.36,4.82,4.82,0,0,0-1.61-.55h0a6.28,6.28,0,0,1-1.52-.46,2.5,2.5,0,0,1-1.09-.92,1.76,1.76,0,0,1-.27-1,2.17,2.17,0,0,1,.94-1.72,3.47,3.47,0,0,1,2-.62,4.58,4.58,0,0,1,2.56.94.6.6,0,0,1,.17.83.59.59,0,0,1-.84.18,3.42,3.42,0,0,0-1.89-.75,2.23,2.23,0,0,0-1.32.4.92.92,0,0,0-.45.74.67.67,0,0,0,.08.33,1.17,1.17,0,0,0,.32.3,4,4,0,0,0,1.47.52h0a6.7,6.7,0,0,1,1.62.5,2.76,2.76,0,0,1,1.18,1,2,2,0,0,1,.28,1,2.28,2.28,0,0,1-1,1.83,3.71,3.71,0,0,1-2.18.67,5.05,5.05,0,0,1-3-1.18A.63.63,0,0,1,198.24,132.77Z" style="fill:#263238"></path><path d="M211.2,131.89v2.31a.62.62,0,0,1-.62.62.63.63,0,0,1-.61-.51,2.68,2.68,0,0,1-1.57.51,2.74,2.74,0,0,1-2-.86,3,3,0,0,1-.8-2.07,3,3,0,0,1,.8-2.07,2.72,2.72,0,0,1,2-.88,2.75,2.75,0,0,1,1.57.51.62.62,0,0,1,1.23.12Zm-1.24,0a1.74,1.74,0,0,0-.46-1.21,1.44,1.44,0,0,0-1.1-.48,1.4,1.4,0,0,0-1.09.48,1.73,1.73,0,0,0-.45,1.21,1.77,1.77,0,0,0,.45,1.21,1.46,1.46,0,0,0,1.09.46,1.49,1.49,0,0,0,1.1-.46A1.77,1.77,0,0,0,210,131.89Z" style="fill:#263238"></path><path d="M214.41,126.58a.66.66,0,0,1,.66.65v6.94a.66.66,0,0,1-1.31,0v-6.94A.66.66,0,0,1,214.41,126.58Z" style="fill:#263238"></path><path d="M216.73,131.88a2.91,2.91,0,0,1,2.87-2.94,2.82,2.82,0,0,1,2.84,2.73v.06a.34.34,0,0,1,0,.1.58.58,0,0,1-.62.47h-3.74a1.58,1.58,0,0,0,.4.78,1.87,1.87,0,0,0,1.13.53,1.91,1.91,0,0,0,1.22-.3.68.68,0,0,1,.89,0,.54.54,0,0,1,0,.76,3,3,0,0,1-2.11.78A2.92,2.92,0,0,1,216.73,131.88Zm1.28-.58h3.33a1.93,1.93,0,0,0-1.74-1.25A1.66,1.66,0,0,0,218,131.3Z" style="fill:#263238"></path><path d="M224,133.14a.61.61,0,0,1,.88-.1,2.19,2.19,0,0,0,1.3.52,1.57,1.57,0,0,0,.8-.22.49.49,0,0,0,.21-.36.14.14,0,0,0,0-.11s-.06-.09-.15-.14a2.61,2.61,0,0,0-.94-.33h0a4.59,4.59,0,0,1-1-.31,2,2,0,0,1-.81-.68,1.41,1.41,0,0,1-.2-.74,1.67,1.67,0,0,1,.7-1.3,2.52,2.52,0,0,1,1.44-.43,3,3,0,0,1,1.77.64.66.66,0,0,1,.19.87.62.62,0,0,1-.87.17,2,2,0,0,0-1.09-.44,1.17,1.17,0,0,0-.7.22.33.33,0,0,0-.19.27.13.13,0,0,0,0,.09.38.38,0,0,0,.13.12,2.58,2.58,0,0,0,.86.28h0a4.4,4.4,0,0,1,1.1.34,1.87,1.87,0,0,1,.83.7,1.42,1.42,0,0,1,.23.77,1.72,1.72,0,0,1-.74,1.37,2.74,2.74,0,0,1-1.53.47,3.4,3.4,0,0,1-2.1-.81A.63.63,0,0,1,224,133.14Z" style="fill:#263238"></path><rect x="197.28" y="149.23" width="128.29" height="92.05" style="fill:#fff"></rect><path d="M325.57,241.28l-128.29.17h-.18v-.18L197,149.23V149h.25l128.29.1h.15v.15Zm0,0-.16-92.05.16.15-128.29.09.24-.24-.07,92.05-.17-.18Z" style="fill:#ebebeb"></path><path d="M213.15,164.34a.35.35,0,0,1-.22.44l-.14,0h0a.45.45,0,0,1-.25-.07.61.61,0,0,1-.2-.22,1.7,1.7,0,0,1-.13-.76.51.51,0,0,0-.08-.27.57.57,0,0,0-.19-.19,1.71,1.71,0,0,0-.35-.15h-.74v1.37a.36.36,0,0,1-.71,0v-3.72a.35.35,0,0,1,.35-.35h1.13a1.35,1.35,0,0,1,.86,2.39,1,1,0,0,1,.22.24,1.15,1.15,0,0,1,.21.68,1.07,1.07,0,0,0,0,.37A.34.34,0,0,1,213.15,164.34Zm-.89-2.54a.65.65,0,0,0-.65-.66h-.77v1.3h.77A.65.65,0,0,0,212.26,161.8Z" style="fill:#263238"></path><path d="M213.82,163.28a1.56,1.56,0,0,1,1.54-1.58,1.51,1.51,0,0,1,1.52,1.47v0a.15.15,0,0,1,0,.06.3.3,0,0,1-.32.25h-2a.88.88,0,0,0,.21.42,1,1,0,0,0,.61.28,1,1,0,0,0,.65-.16.37.37,0,0,1,.48,0,.29.29,0,0,1,0,.41,1.59,1.59,0,0,1-2.67-1.16Zm.68-.31h1.79a1,1,0,0,0-.93-.67A.89.89,0,0,0,214.5,163Z" style="fill:#263238"></path><path d="M220.56,163.29v1.24a.34.34,0,0,1-.34.33.35.35,0,0,1-.33-.27,1.43,1.43,0,0,1-.84.27,1.47,1.47,0,0,1-1.07-.46,1.62,1.62,0,0,1-.43-1.11,1.58,1.58,0,0,1,.43-1.11,1.45,1.45,0,0,1,1.07-.48,1.44,1.44,0,0,1,.84.28.35.35,0,0,1,.33-.28.34.34,0,0,1,.34.34Zm-.67,0a.93.93,0,0,0-.25-.65.79.79,0,0,0-.59-.26.77.77,0,0,0-.59.26.93.93,0,0,0-.24.65,1,1,0,0,0,.24.65.8.8,0,0,0,.59.25.82.82,0,0,0,.59-.25A1,1,0,0,0,219.89,163.29Z" style="fill:#263238"></path><path d="M221.57,163.29a1.61,1.61,0,0,1,1.61-1.59,1.66,1.66,0,0,1,1,.35.35.35,0,0,1,.07.47.34.34,0,0,1-.47.06,1,1,0,0,0-.6-.2.91.91,0,1,0,0,1.81,1.05,1.05,0,0,0,.6-.2.34.34,0,0,1,.47.07.35.35,0,0,1-.07.47,1.78,1.78,0,0,1-1,.33A1.6,1.6,0,0,1,221.57,163.29Z" style="fill:#263238"></path><path d="M226.1,164.51a.35.35,0,0,1-.35.35.35.35,0,0,1-.34-.26.22.22,0,0,1,0-.09v-3.72a.35.35,0,0,1,.7,0v1.1a1.41,1.41,0,0,1,.68-.19,1.38,1.38,0,0,1,1.37,1.39v1.42a.35.35,0,1,1-.69,0v-1.42a.68.68,0,1,0-1.36,0Z" style="fill:#263238"></path><path d="M281.49,161.14h-1v3.37a.35.35,0,1,1-.7,0v-3.37h-1a.35.35,0,0,1-.35-.35.35.35,0,0,1,.35-.35h2.7a.35.35,0,0,1,.35.35A.35.35,0,0,1,281.49,161.14Z" style="fill:#ebebeb"></path><path d="M283.38,164.51a.34.34,0,0,1-.35.35.36.36,0,0,1-.34-.26s0,0,0-.09v-3.72a.35.35,0,0,1,.35-.35.34.34,0,0,1,.35.35v1.1a1.45,1.45,0,0,1,.68-.19,1.39,1.39,0,0,1,1.38,1.39v1.42a.35.35,0,1,1-.7,0v-1.42a.69.69,0,0,0-.68-.69.7.7,0,0,0-.68.69Z" style="fill:#ebebeb"></path><path d="M287.24,160.91a.34.34,0,0,1-.34.35.35.35,0,0,1-.34-.35v-.13a.34.34,0,0,1,.34-.34.33.33,0,0,1,.34.34Zm0,1.15v2.46a.33.33,0,0,1-.34.34.34.34,0,0,1-.34-.34v-2.46a.33.33,0,0,1,.34-.35A.33.33,0,0,1,287.24,162.06Z" style="fill:#ebebeb"></path><path d="M288.18,164a.33.33,0,0,1,.47-.05,1.19,1.19,0,0,0,.7.28.84.84,0,0,0,.42-.12c.09-.08.12-.14.12-.19a.12.12,0,0,0,0-.07.19.19,0,0,0-.08-.07,1.28,1.28,0,0,0-.51-.18h0a2.74,2.74,0,0,1-.55-.16,1.12,1.12,0,0,1-.44-.37.75.75,0,0,1-.11-.4.87.87,0,0,1,.38-.69,1.28,1.28,0,0,1,.77-.24,1.61,1.61,0,0,1,.95.35.34.34,0,1,1-.37.56,1,1,0,0,0-.58-.24.61.61,0,0,0-.38.12.18.18,0,0,0-.1.14.07.07,0,0,0,0,.05.23.23,0,0,0,.07.06,1.32,1.32,0,0,0,.47.16h0a2.39,2.39,0,0,1,.59.19.88.88,0,0,1,.44.37.79.79,0,0,1,.12.42.93.93,0,0,1-.39.73,1.44,1.44,0,0,1-.82.25,1.8,1.8,0,0,1-1.13-.43A.33.33,0,0,1,288.18,164Z" style="fill:#ebebeb"></path><path d="M297.39,162.21l-1,2.45s0,0,0,.05h0l0,0h0l0,0a0,0,0,0,1,0,0l-.06,0h0l-.05,0H296l0,0h0l-.05,0h0s0,0,0,0h0l0,0h0l0-.05-.46-1.09-.45,1.09,0,.05h0l0,0h0l0,0-.06,0h0s0,0,0,0h-.16l0,0h0s0,0-.06,0,0,0,0,0l0,0h0l0,0h0l0-.05-1-2.45a.34.34,0,0,1,.19-.44.31.31,0,0,1,.41.19l.75,1.7.44-1a.35.35,0,0,1,.31-.21.33.33,0,0,1,.31.21l.45,1,.75-1.7a.31.31,0,0,1,.42-.19A.33.33,0,0,1,297.39,162.21Z" style="fill:#ebebeb"></path><path d="M298.17,163.28a1.56,1.56,0,0,1,1.54-1.58,1.51,1.51,0,0,1,1.52,1.47v.09a.31.31,0,0,1-.33.25h-2a.88.88,0,0,0,.21.42,1,1,0,0,0,.61.28,1,1,0,0,0,.66-.16.35.35,0,0,1,.47,0,.29.29,0,0,1,0,.41,1.59,1.59,0,0,1-2.67-1.16Zm.69-.31h1.78a1,1,0,0,0-.93-.67A.88.88,0,0,0,298.86,163Z" style="fill:#ebebeb"></path><path d="M302,163.28a1.57,1.57,0,0,1,1.55-1.58,1.51,1.51,0,0,1,1.52,1.47v0a.15.15,0,0,1,0,.06.3.3,0,0,1-.33.25h-2a.9.9,0,0,0,.22.42,1,1,0,0,0,.61.28,1,1,0,0,0,.65-.16.37.37,0,0,1,.48,0,.29.29,0,0,1,0,.41,1.59,1.59,0,0,1-1.13.42A1.57,1.57,0,0,1,302,163.28Zm.69-.31h1.79a1,1,0,0,0-.93-.67A.89.89,0,0,0,302.7,163Z" style="fill:#ebebeb"></path><path d="M306.08,164.51v-3.72a.35.35,0,0,1,.35-.35.35.35,0,0,1,.35.35V163l1.3-1.29a.35.35,0,0,1,.49.49l-.95,1,1,1.17a.33.33,0,0,1,0,.49.3.3,0,0,1-.22.08.3.3,0,0,1-.26-.13l-.93-1.12-.35.35v.55a.35.35,0,0,1-.35.35A.35.35,0,0,1,306.08,164.51Z" style="fill:#ebebeb"></path><circle cx="232.52" cy="201.52" r="23.11" style="fill:#ebebeb"></circle><path d="M232.52,201.52l8.11,21.64a23.11,23.11,0,1,1-8.11-44.76Z" style="fill:#7E57C2"></path><circle cx="232.52" cy="201.52" r="19.11" style="fill:#fff"></circle><path d="M232.69,188.42l.14,0a1.36,1.36,0,0,1,1.08,1.31,1.37,1.37,0,0,1-2.26,1.05,1.27,1.27,0,0,1-.43-1.39,1.3,1.3,0,0,1,1.09-1l.07,0Z" style="fill:#7E57C2"></path><path d="M232.68,202.08v-2.26c0-.11,0-.11-.12-.11s-.16,0-.16.16v4.41a.74.74,0,0,1-.28.59.37.37,0,0,1-.31.11h-.18a.58.58,0,0,1-.57-.53c0-.12,0-.23,0-.35v-4.23a.21.21,0,0,1,0-.08c0-.06,0-.09-.09-.08h-1.5c-.12,0-.13,0-.09-.12l1.31-4.58.45-1.56c0-.09,0-.1-.07-.1s-.18,0-.24.18c-.33,1.14-.65,2.27-1,3.41a.58.58,0,0,1-.41.44.6.6,0,0,1-.61-.19.5.5,0,0,1-.11-.52c.11-.42.23-.82.35-1.23.25-.88.5-1.75.76-2.63a1.87,1.87,0,0,1,.91-1.17,1.6,1.6,0,0,1,.74-.19h2a1.73,1.73,0,0,1,1.55.93,4.29,4.29,0,0,1,.33.93l.93,3.26a1,1,0,0,1,0,.48.49.49,0,0,1-.36.32.56.56,0,0,1-.75-.41c-.33-1.17-.67-2.34-1-3.51,0-.06,0-.09-.11-.09s-.21,0-.15.2q.72,2.53,1.46,5.07c.09.33.18.65.28,1,0,.11,0,.11-.08.11h-1.5c-.11,0-.11,0-.11.11v4.52a.64.64,0,0,1-.36.61.29.29,0,0,1-.16,0h-.17a.64.64,0,0,1-.65-.65C232.67,203.58,232.68,202.83,232.68,202.08Z" style="fill:#7E57C2"></path><path d="M228.43,212.6a2,2,0,0,1-3.9.2s0,0,0,0,0-.3,0-.46a4.81,4.81,0,0,1,.28-1.65,2.75,2.75,0,0,1,1-1.37,2.17,2.17,0,0,1,1.2-.38.45.45,0,1,1,0,.89,1.48,1.48,0,0,0-.76.23,1.63,1.63,0,0,0-.51.56,2,2,0,0,0-.1.21,2,2,0,0,1,2.73,1.79Zm-.9,0a1.06,1.06,0,1,0-2.11,0,1.06,1.06,0,0,0,2.11,0Z" style="fill:#7E57C2"></path><path d="M232.66,211.13a2,2,0,0,1,.59,1.42,2,2,0,0,1-.59,1.41,2,2,0,0,1-1.41.59h0a2,2,0,0,1-1.4-.59.45.45,0,0,1,0-.64.46.46,0,0,1,.65,0,1.06,1.06,0,0,0,.77.32,1.09,1.09,0,0,0,.76-.32,1.12,1.12,0,0,0,.33-.77,1,1,0,0,0-.33-.77,1,1,0,0,0-.76-.32,1.05,1.05,0,0,0-.77.32.48.48,0,0,1-.65,0l-.09-.11s0,0,0,0,0,0,0,0,0,0,0-.06a0,0,0,0,0,0,0,.33.33,0,0,1,0-.14l.24-2.09a.51.51,0,0,1,.21-.32l0,0h0a.5.5,0,0,1,.21-.05h2.38a.46.46,0,0,1,.46.46.46.46,0,0,1-.46.45h-2l-.1.8a2,2,0,0,1,.54-.08A2,2,0,0,1,232.66,211.13Z" style="fill:#7E57C2"></path><path d="M234.48,210.3h0a1.36,1.36,0,0,1,1.34-1.44,1.34,1.34,0,0,1,1.32,1.42v0a1.33,1.33,0,1,1-2.66,0Zm1.94,0h0c0-.45-.26-.82-.62-.82s-.6.37-.6.8v0c0,.46.26.82.62.82S236.42,210.74,236.42,210.3Zm-1,3.76L239.1,209a.32.32,0,0,1,.28-.14.32.32,0,0,1,.32.31.35.35,0,0,1-.07.21l-3.7,5.05a.32.32,0,0,1-.28.15.32.32,0,0,1-.32-.32A.39.39,0,0,1,235.41,214.06Zm2.48-.87v0a1.36,1.36,0,0,1,1.33-1.44,1.34,1.34,0,0,1,1.32,1.42v0a1.33,1.33,0,1,1-2.65,0Zm1.94,0v0c0-.45-.26-.82-.62-.82s-.61.37-.61.8v0c0,.46.26.82.62.82S239.83,213.62,239.83,213.19Z" style="fill:#7E57C2"></path><circle cx="290.12" cy="201.52" r="23.11" style="fill:#37474f"></circle><path d="M290.12,201.52,282,223.16a23.11,23.11,0,1,0,8.11-44.76Z" style="fill:#ebebeb"></path><circle cx="290.12" cy="201.52" r="19.11" style="fill:#fff"></circle><g id="freepik--1jhwpttif--inject-93"><path d="M286.87,193.06a1.83,1.83,0,0,1,.15-.52,1.66,1.66,0,0,1,1.55-1c1,0,2.07,0,3.1,0a1.75,1.75,0,0,1,1.69,1.57c0,.1,0,.2,0,.3v4a.59.59,0,1,1-1.18,0v-3.64c0-.19,0-.16-.17-.17,0,0,0,0,0,0s-.1,0-.09.1v10.43a.79.79,0,0,1-.45.76.29.29,0,0,1-.16,0H291a.61.61,0,0,1-.54-.27.81.81,0,0,1-.17-.52v-6c0-.07,0-.09-.09-.09-.23,0-.23,0-.23.22v5.88a.78.78,0,0,1-.46.75l0,0c-.25,0-.51.09-.75-.08a.78.78,0,0,1-.35-.67V193.79c0-.15,0-.15-.15-.15s-.16,0-.16.16v3.63a.6.6,0,0,1-.39.57.58.58,0,0,1-.76-.37l0-.09Z" style="fill:#37474f"></path><path d="M290.12,191.14a1.36,1.36,0,1,1,0-2.72,1.36,1.36,0,1,1,0,2.72Z" style="fill:#37474f"></path></g><path d="M286.37,213.05a.44.44,0,0,1-.45.44h-.08v.61a.45.45,0,0,1-.45.45.44.44,0,0,1-.44-.45v-.61h-2.54a.4.4,0,0,1-.27-.09.43.43,0,0,1-.07-.62l3-3.71s0,0,0,0l0,0,0,0,0,0h0s0,0,0,0h.34l0,0,0,0h0s0,0,0,0l0,0,0,0s0,0,0,0l0,0a.13.13,0,0,0,0,.05.1.1,0,0,1,0,0s0,0,0,0,0,0,0,0v3.28h.08A.45.45,0,0,1,286.37,213.05ZM285,210.62l-1.6,2H285Z" style="fill:#37474f"></path><path d="M290.38,211.13a2,2,0,0,1,.59,1.42,2,2,0,0,1-2,2h0a2,2,0,0,1-1.4-.59.44.44,0,0,1,0-.65.47.47,0,0,1,.64,0,1,1,0,0,0,.77.33,1.11,1.11,0,0,0,1.09-1.09,1.09,1.09,0,0,0-1.09-1.09,1.07,1.07,0,0,0-.77.32.47.47,0,0,1-.64,0l-.09-.11s0,0,0,0a.05.05,0,0,0,0,0s0,0,0-.06v0a.29.29,0,0,1,0-.13l.24-2.09a.44.44,0,0,1,.2-.32l0,0h0a.35.35,0,0,1,.21-.05h2.37a.46.46,0,1,1,0,.91h-2l-.1.8a2.08,2.08,0,0,1,.54-.08A2,2,0,0,1,290.38,211.13Z" style="fill:#37474f"></path><path d="M292.21,210.3h0a1.37,1.37,0,0,1,1.33-1.45,1.35,1.35,0,0,1,1.32,1.43v0a1.33,1.33,0,1,1-2.65,0Zm1.94,0h0c0-.46-.26-.83-.62-.83s-.61.37-.61.81v0c0,.46.26.82.62.82S294.15,210.74,294.15,210.3Zm-1,3.76,3.7-5.05a.32.32,0,0,1,.27-.14.32.32,0,0,1,.33.31.36.36,0,0,1-.08.21l-3.69,5.05a.34.34,0,0,1-.29.15.31.31,0,0,1-.31-.32A.38.38,0,0,1,293.13,214.06Zm2.48-.87v0a1.36,1.36,0,0,1,1.34-1.44,1.34,1.34,0,0,1,1.32,1.42v0a1.36,1.36,0,0,1-1.34,1.44A1.35,1.35,0,0,1,295.61,213.19Zm1.94,0v0c0-.45-.25-.82-.62-.82s-.6.37-.6.8v0c0,.46.26.82.62.82S297.55,213.62,297.55,213.19Z" style="fill:#37474f"></path><rect x="334.86" y="149.23" width="128.29" height="92.05" style="fill:#fff"></rect><path d="M463.15,241.28l-128.29.17h-.17v-.18l-.07-92.05V149h.24l128.29.1h.15v.15Zm0,0L463,149.23l.15.15-128.29.09.25-.24L335,241.28l-.18-.18Z" style="fill:#ebebeb"></path><path d="M347.41,173.8l.11,14.24.06,14.24.07,28.48-.24-.24c22.53-.07,45,0,67.57,0l5.24.05,33.78.14-33.78.13L415,231c-22.52,0-45,.11-67.57,0h-.23v-.23l.07-28.48.06-14.24Z" style="fill:#ebebeb"></path><polygon points="344.02 178.16 356.84 178.04 369.67 178 395.32 177.92 420.97 178 433.79 178.04 446.62 178.16 433.79 178.28 420.97 178.33 395.32 178.41 369.67 178.33 356.84 178.28 344.02 178.16" style="fill:#ebebeb"></polygon><polygon points="344.02 189.84 356.84 189.72 369.67 189.68 395.32 189.59 420.97 189.68 433.79 189.72 446.62 189.84 433.79 189.96 420.97 190 395.32 190.09 369.67 190 356.84 189.96 344.02 189.84" style="fill:#ebebeb"></polygon><polygon points="344.02 201.52 356.84 201.4 369.67 201.35 395.32 201.27 420.97 201.35 433.79 201.4 446.62 201.52 433.79 201.64 420.97 201.68 395.32 201.76 369.67 201.68 356.84 201.64 344.02 201.52" style="fill:#ebebeb"></polygon><polygon points="344.02 213.19 356.84 213.07 369.67 213.03 395.32 212.95 420.97 213.03 433.79 213.07 446.62 213.19 433.79 213.31 420.97 213.36 395.32 213.44 369.67 213.36 356.84 213.31 344.02 213.19" style="fill:#ebebeb"></polygon><polygon points="344.02 224.87 356.84 224.75 369.67 224.71 395.32 224.63 420.97 224.71 433.79 224.75 446.62 224.87 433.79 224.99 420.97 225.03 395.32 225.11 369.67 225.03 356.84 224.99 344.02 224.87" style="fill:#ebebeb"></polygon><rect x="416.53" y="189.84" width="9.27" height="40.92" style="fill:#ebebeb"></rect><rect x="432.47" y="178.16" width="9.27" height="52.59" style="fill:#ebebeb"></rect><rect x="400.6" y="183.12" width="9.27" height="47.64" style="fill:#ebebeb"></rect><rect x="384.66" y="192.85" width="9.27" height="37.91" style="fill:#ebebeb"></rect><rect x="368.73" y="189.84" width="9.27" height="40.92" style="fill:#ebebeb"></rect><rect x="352.79" y="178.16" width="9.27" height="52.59" style="fill:#ebebeb"></rect><rect x="352.79" y="187.25" width="9.27" height="43.51" style="fill:#7E57C2"></rect><rect x="368.73" y="194.16" width="9.27" height="36.6" style="fill:#7E57C2"></rect><rect x="384.66" y="205.75" width="9.27" height="25" style="fill:#7E57C2"></rect><rect x="400.6" y="189.84" width="9.27" height="40.92" style="fill:#7E57C2"></rect><rect x="416.53" y="197.35" width="9.27" height="33.41" style="fill:#7E57C2"></rect><rect x="432.47" y="182.73" width="9.27" height="48.03" style="fill:#7E57C2"></rect><path d="M349.64,164.86a1.82,1.82,0,0,1-1.83-1.82v-2.25a.35.35,0,0,1,.35-.35.36.36,0,0,1,.36.35V163a1.13,1.13,0,0,0,2.25,0v-2.25a.34.34,0,0,1,.35-.35.35.35,0,0,1,.35.35V163A1.83,1.83,0,0,1,349.64,164.86Z" style="fill:#263238"></path><path d="M352.73,164a.33.33,0,0,1,.47-.05,1.22,1.22,0,0,0,.7.28.88.88,0,0,0,.43-.12.29.29,0,0,0,.11-.19.12.12,0,0,0,0-.07.19.19,0,0,0-.08-.07,1.28,1.28,0,0,0-.51-.18h0a2.74,2.74,0,0,1-.55-.16,1.2,1.2,0,0,1-.44-.37.75.75,0,0,1-.11-.4.87.87,0,0,1,.38-.69,1.28,1.28,0,0,1,.77-.24,1.61,1.61,0,0,1,.95.35.35.35,0,0,1,.1.47.34.34,0,0,1-.46.09,1.06,1.06,0,0,0-.59-.24.58.58,0,0,0-.37.12c-.09,0-.11.11-.11.14s0,0,0,.05,0,0,.07.06a1.19,1.19,0,0,0,.46.16h0a2.39,2.39,0,0,1,.59.19.94.94,0,0,1,.45.37.89.89,0,0,1,.12.42.91.91,0,0,1-.4.73,1.42,1.42,0,0,1-.82.25,1.8,1.8,0,0,1-1.13-.43A.33.33,0,0,1,352.73,164Z" style="fill:#263238"></path><path d="M355.77,163.28a1.56,1.56,0,0,1,1.54-1.58,1.51,1.51,0,0,1,1.52,1.47v0a.15.15,0,0,1,0,.06.3.3,0,0,1-.33.25h-2a.88.88,0,0,0,.21.42,1,1,0,0,0,.61.28,1,1,0,0,0,.65-.16.37.37,0,0,1,.48,0,.29.29,0,0,1,0,.41,1.59,1.59,0,0,1-2.67-1.16Zm.68-.31h1.79a1,1,0,0,0-.93-.67A.89.89,0,0,0,356.45,163Z" style="fill:#263238"></path><path d="M361.65,162a.34.34,0,0,1-.34.33.64.64,0,0,0-.38.12,1.07,1.07,0,0,0-.29.31,1.9,1.9,0,0,0-.26.53v1.2a.34.34,0,0,1-.35.33.33.33,0,0,1-.33-.33V162a.33.33,0,0,1,.33-.33.34.34,0,0,1,.35.33v0l.13-.12a1.36,1.36,0,0,1,.8-.25A.33.33,0,0,1,361.65,162Z" style="fill:#263238"></path><path d="M362.32,164a.33.33,0,0,1,.47-.05,1.22,1.22,0,0,0,.7.28.88.88,0,0,0,.43-.12.25.25,0,0,0,.11-.19s0,0,0-.07,0,0-.08-.07a1.28,1.28,0,0,0-.5-.18h0a2.74,2.74,0,0,1-.55-.16,1.2,1.2,0,0,1-.44-.37.74.74,0,0,1-.1-.4.86.86,0,0,1,.37-.69,1.31,1.31,0,0,1,.78-.24,1.6,1.6,0,0,1,.94.35.33.33,0,1,1-.36.56,1,1,0,0,0-.58-.24.59.59,0,0,0-.38.12.18.18,0,0,0-.1.14.07.07,0,0,0,0,.05.14.14,0,0,0,.07.06,1.25,1.25,0,0,0,.46.16h0a2.27,2.27,0,0,1,.59.19.94.94,0,0,1,.45.37.89.89,0,0,1,.12.42.91.91,0,0,1-.4.73,1.42,1.42,0,0,1-.82.25,1.85,1.85,0,0,1-1.13-.43A.35.35,0,0,1,362.32,164Z" style="fill:#263238"></path><path d="M369.8,163.82h-1.54l-.31.82a.34.34,0,0,1-.32.22.22.22,0,0,1-.12,0,.34.34,0,0,1-.21-.45l1.39-3.72a.38.38,0,0,1,.34-.23.36.36,0,0,1,.33.23l1.4,3.72a.36.36,0,0,1-.21.45.23.23,0,0,1-.12,0,.33.33,0,0,1-.32-.22Zm-.26-.7-.51-1.35-.51,1.35Z" style="fill:#263238"></path><path d="M371.17,163.29a1.62,1.62,0,0,1,1.61-1.59,1.64,1.64,0,0,1,1,.35.35.35,0,0,1,.07.47.34.34,0,0,1-.47.06,1,1,0,0,0-.6-.2.91.91,0,1,0,0,1.81,1,1,0,0,0,.6-.2.34.34,0,0,1,.47.07.35.35,0,0,1-.07.47,1.76,1.76,0,0,1-1,.33A1.61,1.61,0,0,1,371.17,163.29Z" style="fill:#263238"></path><path d="M376.42,162.05a.35.35,0,0,1-.35.35h-.16v1.76a.35.35,0,0,1,.35.35.34.34,0,0,1-.35.35.7.7,0,0,1-.7-.7V162.4H375a.35.35,0,0,1-.35-.35.34.34,0,0,1,.35-.35h.18v-.91a.35.35,0,0,1,.35-.35.34.34,0,0,1,.35.35v.91h.16A.35.35,0,0,1,376.42,162.05Z" style="fill:#263238"></path><path d="M378.22,160.91a.35.35,0,0,1-.34.35.35.35,0,0,1-.35-.35v-.13a.35.35,0,0,1,.35-.34.34.34,0,0,1,.34.34Zm0,1.15v2.46a.34.34,0,0,1-.34.34.35.35,0,0,1-.35-.34v-2.46a.34.34,0,0,1,.35-.35A.33.33,0,0,1,378.22,162.06Z" style="fill:#263238"></path><path d="M381.8,162.21l-1,2.45a.07.07,0,0,1,0,0,0,0,0,0,1,0,0l0,0h0l0,0h0a.08.08,0,0,1,0,0h0l-.05,0h-.14l-.05,0h0l-.06,0h0l0,0h0l0,0s0,0,0,0,0,0,0,0l-1-2.45a.33.33,0,1,1,.6-.25l.73,1.72.73-1.72a.32.32,0,0,1,.43-.18A.33.33,0,0,1,381.8,162.21Z" style="fill:#263238"></path><path d="M383.67,160.91a.35.35,0,0,1-.34.35.35.35,0,0,1-.35-.35v-.13a.35.35,0,0,1,.35-.34.34.34,0,0,1,.34.34Zm0,1.15v2.46a.34.34,0,0,1-.34.34.35.35,0,0,1-.35-.34v-2.46a.34.34,0,0,1,.35-.35A.33.33,0,0,1,383.67,162.06Z" style="fill:#263238"></path><path d="M386.17,162.05a.35.35,0,0,1-.35.35h-.16v1.76a.35.35,0,0,1,.35.35.34.34,0,0,1-.35.35.7.7,0,0,1-.7-.7V162.4h-.18a.35.35,0,0,1-.35-.35.34.34,0,0,1,.35-.35H385v-.91a.35.35,0,0,1,.35-.35.34.34,0,0,1,.35.35v.91h.16A.35.35,0,0,1,386.17,162.05Z" style="fill:#263238"></path><path d="M389.66,162v2.39a1.5,1.5,0,0,1-1.51,1.51,1.56,1.56,0,0,1-.65-.16.33.33,0,0,1-.16-.45.34.34,0,0,1,.44-.14.81.81,0,0,0,.37.09.84.84,0,0,0,.79-.58,1.25,1.25,0,0,1-.6.16,1.33,1.33,0,0,1-1.32-1.33V162a.34.34,0,0,1,.33-.34.33.33,0,0,1,.33.34v1.49a.65.65,0,0,0,.66.64.64.64,0,0,0,.65-.64V162a.33.33,0,0,1,.33-.34A.34.34,0,0,1,389.66,162Z" style="fill:#263238"></path><path d="M419.08,161.14h-1v3.37a.35.35,0,1,1-.69,0v-3.37h-1a.35.35,0,0,1-.35-.35.34.34,0,0,1,.35-.35h2.7a.35.35,0,0,1,.34.35A.35.35,0,0,1,419.08,161.14Z" style="fill:#ebebeb"></path><path d="M421,164.51a.35.35,0,0,1-.35.35.35.35,0,0,1-.34-.26.22.22,0,0,1,0-.09v-3.72a.35.35,0,1,1,.7,0v1.1a1.41,1.41,0,0,1,.68-.19,1.38,1.38,0,0,1,1.37,1.39v1.42a.35.35,0,1,1-.69,0v-1.42a.68.68,0,1,0-1.36,0Z" style="fill:#ebebeb"></path><path d="M424.83,160.91a.34.34,0,1,1-.68,0v-.13a.34.34,0,0,1,.68,0Zm0,1.15v2.46a.34.34,0,0,1-.68,0v-2.46a.34.34,0,1,1,.68,0Z" style="fill:#ebebeb"></path><path d="M425.76,164a.34.34,0,0,1,.48-.05,1.16,1.16,0,0,0,.69.28.88.88,0,0,0,.43-.12.25.25,0,0,0,.11-.19.13.13,0,0,0,0-.07.25.25,0,0,0-.09-.07,1.17,1.17,0,0,0-.5-.18h0a3.19,3.19,0,0,1-.55-.16,1.09,1.09,0,0,1-.43-.37.75.75,0,0,1-.11-.4.86.86,0,0,1,.37-.69,1.31,1.31,0,0,1,.78-.24,1.66,1.66,0,0,1,.95.35.36.36,0,0,1,.1.47.35.35,0,0,1-.47.09,1,1,0,0,0-.58-.24.59.59,0,0,0-.38.12.18.18,0,0,0-.1.14.07.07,0,0,0,0,.05.23.23,0,0,0,.07.06,1.25,1.25,0,0,0,.46.16h0a2.27,2.27,0,0,1,.59.19.94.94,0,0,1,.45.37.79.79,0,0,1,.12.42.91.91,0,0,1-.4.73,1.42,1.42,0,0,1-.82.25,1.8,1.8,0,0,1-1.12-.43A.34.34,0,0,1,425.76,164Z" style="fill:#ebebeb"></path><path d="M435,162.21l-1,2.45,0,.05h0s0,0,0,0h0l0,0h0l-.06,0h0l-.05,0h-.14l-.05,0h0l-.06,0h0s0,0,0,0h0l0,0h0s0,0,0-.05l-.46-1.09-.45,1.09,0,.05h0l0,0h0l0,0-.06,0h0l0,0H432l0,0h0a.1.1,0,0,1-.05,0s0,0,0,0l0,0h0l0,0h0l0-.05-1-2.45a.33.33,0,0,1,.18-.44.32.32,0,0,1,.42.19l.75,1.7.44-1a.33.33,0,0,1,.62,0l.45,1,.74-1.7a.32.32,0,0,1,.42-.19A.34.34,0,0,1,435,162.21Z" style="fill:#ebebeb"></path><path d="M435.75,163.28a1.57,1.57,0,0,1,1.54-1.58,1.51,1.51,0,0,1,1.53,1.47v0a.15.15,0,0,1,0,.06.3.3,0,0,1-.33.25h-2a.9.9,0,0,0,.22.42,1,1,0,0,0,.6.28,1,1,0,0,0,.66-.16.37.37,0,0,1,.48,0,.29.29,0,0,1,0,.41,1.59,1.59,0,0,1-1.14.42A1.57,1.57,0,0,1,435.75,163.28Zm.69-.31h1.79a1,1,0,0,0-.94-.67A.89.89,0,0,0,436.44,163Z" style="fill:#ebebeb"></path><path d="M439.6,163.28a1.56,1.56,0,0,1,1.54-1.58,1.51,1.51,0,0,1,1.52,1.47v.09a.3.3,0,0,1-.33.25h-2a.88.88,0,0,0,.21.42,1,1,0,0,0,.61.28,1,1,0,0,0,.66-.16.35.35,0,0,1,.47,0,.29.29,0,0,1,0,.41,1.59,1.59,0,0,1-2.67-1.16Zm.69-.31h1.79a1.06,1.06,0,0,0-.94-.67A.88.88,0,0,0,440.29,163Z" style="fill:#ebebeb"></path><path d="M443.67,164.51v-3.72a.35.35,0,0,1,.34-.35.36.36,0,0,1,.36.35V163l1.29-1.29a.35.35,0,0,1,.5,0,.36.36,0,0,1,0,.49l-1,1,1,1.17a.35.35,0,0,1-.05.49.3.3,0,0,1-.22.08.34.34,0,0,1-.27-.13l-.92-1.12-.35.35v.55a.36.36,0,0,1-.36.35A.35.35,0,0,1,443.67,164.51Z" style="fill:#ebebeb"></path><rect x="471.77" y="149.23" width="97.94" height="40.61" style="fill:#fff"></rect><path d="M569.71,189.84l-97.94.2h-.2v-.2l0-40.61V149h.25l97.94.12h.13v.13Zm0,0-.13-40.61.13.13-97.94.11.24-.24,0,40.61-.2-.2Z" style="fill:#ebebeb"></path><path d="M484.71,164.51v-3.72a.34.34,0,0,1,.35-.35h2.07a.35.35,0,0,1,.34.35.35.35,0,0,1-.34.35h-1.71v1.16h1.47a.34.34,0,0,1,.34.34.35.35,0,0,1-.34.36h-1.47v1.16h1.71a.35.35,0,0,1,0,.7h-2.07A.35.35,0,0,1,484.71,164.51Z" style="fill:#263238"></path><path d="M491.06,163.29v1.24a.33.33,0,0,1-.33.33.34.34,0,0,1-.33-.27,1.45,1.45,0,0,1-.84.27,1.51,1.51,0,0,1-1.08-.46,1.62,1.62,0,0,1-.43-1.11,1.58,1.58,0,0,1,.43-1.11,1.49,1.49,0,0,1,1.08-.48,1.46,1.46,0,0,1,.84.28.34.34,0,0,1,.33-.28.34.34,0,0,1,.33.34Zm-.67,0a.93.93,0,0,0-.24-.65.8.8,0,0,0-.59-.26.77.77,0,0,0-.59.26.93.93,0,0,0-.24.65,1,1,0,0,0,.24.65.8.8,0,0,0,.59.25.83.83,0,0,0,.59-.25A1,1,0,0,0,490.39,163.29Z" style="fill:#263238"></path><path d="M494.24,162a.33.33,0,0,1-.33.33.62.62,0,0,0-.38.12,1.07,1.07,0,0,0-.29.31,1.9,1.9,0,0,0-.26.53v1.2a.34.34,0,0,1-.35.33.33.33,0,0,1-.33-.33V162a.33.33,0,0,1,.33-.33.34.34,0,0,1,.35.33v0l.13-.12a1.36,1.36,0,0,1,.8-.25A.32.32,0,0,1,494.24,162Z" style="fill:#263238"></path><path d="M497.71,163v1.51a.33.33,0,0,1-.33.33.34.34,0,0,1-.34-.33V163a.64.64,0,0,0-.66-.64.63.63,0,0,0-.63.64v1.51a.15.15,0,0,1,0,.06.34.34,0,0,1-.33.27.34.34,0,0,1-.34-.33V162a.34.34,0,0,1,.34-.34.35.35,0,0,1,.31.2,1.22,1.22,0,0,1,.66-.2A1.33,1.33,0,0,1,497.71,163Z" style="fill:#263238"></path><path d="M498.79,164a.33.33,0,0,1,.47-.05,1.22,1.22,0,0,0,.7.28.88.88,0,0,0,.43-.12.25.25,0,0,0,.11-.19s0,0,0-.07,0,0-.08-.07a1.28,1.28,0,0,0-.5-.18h0a2.74,2.74,0,0,1-.55-.16,1.2,1.2,0,0,1-.44-.37.74.74,0,0,1-.1-.4.86.86,0,0,1,.37-.69,1.31,1.31,0,0,1,.78-.24,1.6,1.6,0,0,1,.94.35.34.34,0,0,1,.1.47.33.33,0,0,1-.46.09,1,1,0,0,0-.58-.24.59.59,0,0,0-.38.12.18.18,0,0,0-.1.14.07.07,0,0,0,0,.05.14.14,0,0,0,.07.06,1.25,1.25,0,0,0,.46.16h0a2.27,2.27,0,0,1,.59.19.94.94,0,0,1,.45.37.89.89,0,0,1,.12.42.91.91,0,0,1-.4.73,1.42,1.42,0,0,1-.82.25,1.85,1.85,0,0,1-1.13-.43A.35.35,0,0,1,498.79,164Z" style="fill:#263238"></path><path d="M505.37,162.05a.36.36,0,0,1-.36.35h-.16v1.76a.35.35,0,0,1,.35.35.34.34,0,0,1-.35.35.7.7,0,0,1-.7-.7V162.4H504a.35.35,0,0,1-.35-.35.34.34,0,0,1,.35-.35h.18v-.91a.35.35,0,0,1,.36-.35.34.34,0,0,1,.34.35v.91H505A.36.36,0,0,1,505.37,162.05Z" style="fill:#263238"></path><path d="M507.05,164.51a.35.35,0,0,1-.36.35.34.34,0,0,1-.33-.26.2.2,0,0,1,0-.09v-3.72a.36.36,0,0,1,.71,0v1.1a1.36,1.36,0,0,1,2.05,1.2v1.42a.34.34,0,0,1-.35.35.35.35,0,0,1-.35-.35v-1.42a.68.68,0,1,0-1.35,0Z" style="fill:#263238"></path><path d="M510.9,160.91a.34.34,0,0,1-.34.35.35.35,0,0,1-.34-.35v-.13a.34.34,0,0,1,.34-.34.33.33,0,0,1,.34.34Zm0,1.15v2.46a.33.33,0,0,1-.34.34.34.34,0,0,1-.34-.34v-2.46a.33.33,0,0,1,.34-.35A.33.33,0,0,1,510.9,162.06Z" style="fill:#263238"></path><path d="M511.84,164a.33.33,0,0,1,.47-.05,1.22,1.22,0,0,0,.7.28.91.91,0,0,0,.43-.12.29.29,0,0,0,.11-.19.12.12,0,0,0,0-.07.19.19,0,0,0-.08-.07,1.28,1.28,0,0,0-.51-.18h0a2.74,2.74,0,0,1-.55-.16A1.2,1.2,0,0,1,512,163a.75.75,0,0,1-.11-.4.87.87,0,0,1,.38-.69,1.28,1.28,0,0,1,.77-.24,1.61,1.61,0,0,1,1,.35.35.35,0,0,1,.1.47.34.34,0,0,1-.46.09,1.06,1.06,0,0,0-.59-.24.58.58,0,0,0-.37.12c-.09,0-.11.11-.11.14s0,0,0,.05,0,0,.07.06a1.19,1.19,0,0,0,.46.16h0a2.39,2.39,0,0,1,.59.19.94.94,0,0,1,.45.37.89.89,0,0,1,.12.42.91.91,0,0,1-.4.73,1.42,1.42,0,0,1-.82.25,1.83,1.83,0,0,1-1.13-.43A.33.33,0,0,1,511.84,164Z" style="fill:#263238"></path><path d="M520.86,160.79v3.72a.35.35,0,0,1-.35.35.35.35,0,0,1-.35-.35v-2.66l-.91,1.27a.35.35,0,0,1-.28.14h0a.34.34,0,0,1-.29-.14l-.91-1.27v2.66a.35.35,0,0,1-.7,0v-3.72a.35.35,0,0,1,.35-.35h0a.37.37,0,0,1,.28.14l1.25,1.75,1.26-1.75a.35.35,0,0,1,.28-.14h0A.35.35,0,0,1,520.86,160.79Z" style="fill:#263238"></path><path d="M522.61,164.4a1.58,1.58,0,0,1-.43-1.11,1.66,1.66,0,0,1,.43-1.11,1.51,1.51,0,0,1,1.09-.48,1.41,1.41,0,0,1,1,.48,1.58,1.58,0,0,1,.45,1.11,1.51,1.51,0,0,1-.45,1.11,1.37,1.37,0,0,1-1,.48A1.47,1.47,0,0,1,522.61,164.4Zm.25-1.11a1.06,1.06,0,0,0,.23.67.87.87,0,0,0,.61.23.83.83,0,0,0,.58-.23,1,1,0,0,0,.25-.67,1,1,0,0,0-.25-.66.89.89,0,0,0-.58-.24.93.93,0,0,0-.61.24A1,1,0,0,0,522.86,163.29Z" style="fill:#263238"></path><path d="M528.9,163v1.51a.33.33,0,0,1-.33.33.34.34,0,0,1-.33-.33V163a.65.65,0,0,0-.66-.64.63.63,0,0,0-.63.64v1.51a.15.15,0,0,1,0,.06.35.35,0,0,1-.34.27.33.33,0,0,1-.33-.33V162a.33.33,0,0,1,.64-.14,1.28,1.28,0,0,1,.67-.2A1.32,1.32,0,0,1,528.9,163Z" style="fill:#263238"></path><path d="M531.56,162.05a.35.35,0,0,1-.35.35h-.16v1.76a.35.35,0,0,1,.35.35.34.34,0,0,1-.35.35.7.7,0,0,1-.7-.7V162.4h-.18a.35.35,0,0,1-.35-.35.34.34,0,0,1,.35-.35h.18v-.91a.35.35,0,0,1,.35-.35.34.34,0,0,1,.35.35v.91h.16A.35.35,0,0,1,531.56,162.05Z" style="fill:#263238"></path><path d="M533.24,164.51a.35.35,0,0,1-.35.35.36.36,0,0,1-.34-.26s0,0,0-.09v-3.72a.35.35,0,1,1,.7,0v1.1a1.41,1.41,0,0,1,.68-.19,1.38,1.38,0,0,1,1.37,1.39v1.42a.35.35,0,1,1-.69,0v-1.42a.68.68,0,1,0-1.36,0Z" style="fill:#263238"></path><path d="M500.28,170.09a.47.47,0,0,1,.48.48v.24a4.07,4.07,0,0,1,1.71.61.59.59,0,0,1,.34.53.61.61,0,0,1-.62.61.74.74,0,0,1-.34-.1,4.08,4.08,0,0,0-1.13-.49v2.12c1.68.43,2.4,1.1,2.4,2.28s-1,2-2.36,2.16v.67a.47.47,0,0,1-.48.47.48.48,0,0,1-.48-.47v-.69a4.84,4.84,0,0,1-2.27-.86.62.62,0,0,1-.3-.53.59.59,0,0,1,.61-.61.58.58,0,0,1,.36.12,3.86,3.86,0,0,0,1.64.74v-2.18c-1.61-.42-2.37-1-2.37-2.28a2.22,2.22,0,0,1,2.33-2.11v-.23A.48.48,0,0,1,500.28,170.09Zm-.44,3.77v-2c-.71.07-1.06.45-1.06.93S499,173.59,499.84,173.86Zm.88,1.54v2c.7-.07,1.09-.43,1.09-1S501.57,175.67,500.72,175.4Z" style="fill:#7E57C2"></path><path d="M509.27,177.92a.6.6,0,0,1-.61.61h-3.94a.57.57,0,0,1-.45-.2.61.61,0,0,1,0-.86l3.28-3a1.37,1.37,0,0,0,.46-1.06,1.45,1.45,0,0,0-.36-1,1.42,1.42,0,0,0-1.07-.46,1.47,1.47,0,0,0-1,.36l-.34.31a.61.61,0,1,1-.82-.91l.34-.31a2.63,2.63,0,0,1,1.78-.68,2.68,2.68,0,0,1,2,.87,2.59,2.59,0,0,1,.69,1.78,2.68,2.68,0,0,1-.87,2l-2.1,1.89h2.36A.61.61,0,0,1,509.27,177.92Z" style="fill:#7E57C2"></path><path d="M511.8,177a.83.83,0,0,1,.83.83.83.83,0,1,1-.83-.83Z" style="fill:#7E57C2"></path><path d="M519.26,176.47a.61.61,0,0,1-.62.61h-.11v.84a.61.61,0,1,1-1.22,0v-.84h-3.48a.55.55,0,0,1-.38-.13.59.59,0,0,1-.1-.85l4.1-5.09,0,0,0-.05.06,0,0,0a.08.08,0,0,1,.07,0s0,0,0,0l.07,0h.29l.06,0h0s0,0,.05,0l.06,0h0l0,0,0,.05,0,0,0,.06,0,0s0,0,0,.07,0,0,0,0a.13.13,0,0,1,0,.07s0,0,0,.05v4.51h.11A.61.61,0,0,1,519.26,176.47Zm-2-3.34-2.2,2.74h2.2Z" style="fill:#7E57C2"></path><path d="M520.69,174.66a4.66,4.66,0,0,1,.75-2.64,2.33,2.33,0,0,1,4.11,0,5.08,5.08,0,0,1,0,5.28,2.54,2.54,0,0,1-2,1.23,2.52,2.52,0,0,1-2.06-1.23A4.69,4.69,0,0,1,520.69,174.66Zm4.37,0a3.67,3.67,0,0,0-.53-2,1.27,1.27,0,0,0-1-.67,1.31,1.31,0,0,0-1,.67,3.67,3.67,0,0,0-.53,2,3.64,3.64,0,0,0,.53,2,1.35,1.35,0,0,0,1,.68,1.31,1.31,0,0,0,1-.68A3.64,3.64,0,0,0,525.06,174.66Z" style="fill:#7E57C2"></path><path d="M533.72,175.9a2.64,2.64,0,1,1-4.1-2.2,1.83,1.83,0,1,1,2.92,0A2.63,2.63,0,0,1,533.72,175.9Zm-1.2,0a1.44,1.44,0,0,0-1.43-1.44,1.44,1.44,0,1,0,0,2.87A1.44,1.44,0,0,0,532.52,175.9Zm-2.06-3.3a.62.62,0,1,0,1.24,0,.62.62,0,0,0-1.24,0Z" style="fill:#7E57C2"></path><rect x="484.71" y="171.48" width="5.44" height="6.64" style="fill:#7E57C2"></rect><polygon points="484.71 178.12 485.62 178.12 485.17 178.55 484.71 178.12" style="fill:#7E57C2"></polygon><polygon points="485.62 178.12 486.53 178.12 486.07 178.55 485.62 178.12" style="fill:#7E57C2"></polygon><polygon points="486.53 178.12 487.43 178.12 486.98 178.55 486.53 178.12" style="fill:#7E57C2"></polygon><polygon points="487.43 178.12 488.34 178.12 487.89 178.55 487.43 178.12" style="fill:#7E57C2"></polygon><polygon points="488.34 178.12 489.25 178.12 488.79 178.55 488.34 178.12" style="fill:#7E57C2"></polygon><polygon points="489.25 178.12 490.15 178.12 489.7 178.55 489.25 178.12" style="fill:#7E57C2"></polygon><rect x="485.86" y="172.74" width="3.12" height="0.24" style="fill:#fff"></rect><rect x="485.86" y="173.48" width="3.12" height="0.24" style="fill:#fff"></rect><rect x="485.86" y="174.22" width="3.12" height="0.24" style="fill:#fff"></rect><rect x="485.86" y="174.96" width="3.12" height="0.24" style="fill:#fff"></rect><rect x="471.77" y="200.67" width="97.94" height="40.61" style="fill:#fff"></rect><path d="M569.71,241.28l-97.94.2h-.2v-.2l0-40.61v-.25h.25l97.94.12h.13v.13Zm0,0-.13-40.61.13.13-97.94.11.24-.24,0,40.61-.2-.2Z" style="fill:#ebebeb"></path><path d="M487,215.26h-1.54l-.31.82a.34.34,0,0,1-.32.22l-.12,0a.34.34,0,0,1-.21-.45l1.39-3.72a.38.38,0,0,1,.34-.23.36.36,0,0,1,.33.23l1.4,3.72a.36.36,0,0,1-.21.45l-.12,0a.33.33,0,0,1-.32-.22Zm-.26-.7-.51-1.36-.51,1.36Z" style="fill:#263238"></path><path d="M488.35,214.73a1.61,1.61,0,0,1,1.6-1.59,1.64,1.64,0,0,1,1,.35.33.33,0,1,1-.4.53,1,1,0,0,0-.6-.2.91.91,0,1,0,0,1.81,1,1,0,0,0,.6-.2.34.34,0,1,1,.4.54,1.76,1.76,0,0,1-1,.33A1.6,1.6,0,0,1,488.35,214.73Z" style="fill:#263238"></path><path d="M491.86,214.73a1.61,1.61,0,0,1,1.6-1.59,1.69,1.69,0,0,1,1,.35.36.36,0,0,1,.07.47.35.35,0,0,1-.48.06,1,1,0,0,0-.6-.2.91.91,0,1,0,0,1.81,1,1,0,0,0,.6-.2.35.35,0,0,1,.48.07.36.36,0,0,1-.07.47,1.82,1.82,0,0,1-1,.33A1.6,1.6,0,0,1,491.86,214.73Z" style="fill:#263238"></path><path d="M495.88,215.84a1.59,1.59,0,0,1-.44-1.11,1.67,1.67,0,0,1,.44-1.11,1.46,1.46,0,0,1,1.09-.48,1.39,1.39,0,0,1,1,.48,1.57,1.57,0,0,1,.44,1.11,1.51,1.51,0,0,1-.44,1.11,1.39,1.39,0,0,1-1,.48A1.46,1.46,0,0,1,495.88,215.84Zm.25-1.11a1,1,0,0,0,.23.67.87.87,0,0,0,.61.23.83.83,0,0,0,.58-.23,1,1,0,0,0,.24-.67.94.94,0,0,0-.24-.66.89.89,0,0,0-.58-.24.93.93,0,0,0-.61.24A1,1,0,0,0,496.13,214.73Z" style="fill:#263238"></path><path d="M500.69,216.3a1.32,1.32,0,0,1-1.32-1.31v-1.51a.34.34,0,0,1,.34-.34.34.34,0,0,1,.33.34V215a.64.64,0,0,0,.65.64.66.66,0,0,0,.66-.64v-1.51a.34.34,0,0,1,.33-.34.36.36,0,0,1,.34.34V215A1.33,1.33,0,0,1,500.69,216.3Z" style="fill:#263238"></path><path d="M505.79,214.46V216a.33.33,0,1,1-.66,0v-1.51a.65.65,0,0,0-.66-.64.62.62,0,0,0-.63.64V216a.1.1,0,0,1,0,.06.34.34,0,0,1-.33.27.34.34,0,0,1-.34-.33v-2.49a.34.34,0,0,1,.34-.34.35.35,0,0,1,.31.2,1.26,1.26,0,0,1,.67-.2A1.33,1.33,0,0,1,505.79,214.46Z" style="fill:#263238"></path><path d="M508.45,213.49a.36.36,0,0,1-.36.35h-.15v1.76a.35.35,0,0,1,.34.35.34.34,0,0,1-.34.35.71.71,0,0,1-.71-.7v-1.76h-.18a.35.35,0,0,1-.35-.35.35.35,0,0,1,.35-.35h.18v-.91a.36.36,0,0,1,.71,0v.91h.15A.36.36,0,0,1,508.45,213.49Z" style="fill:#263238"></path><path d="M509.4,215.4a.33.33,0,0,1,.47-.05,1.14,1.14,0,0,0,.7.27.78.78,0,0,0,.43-.12.23.23,0,0,0,.11-.19s0,0,0-.06,0,0-.08-.07a1.28,1.28,0,0,0-.5-.18h0a2.21,2.21,0,0,1-.55-.17,1.08,1.08,0,0,1-.44-.36.77.77,0,0,1-.1-.4.86.86,0,0,1,.37-.69,1.31,1.31,0,0,1,.78-.24,1.6,1.6,0,0,1,.94.35.35.35,0,0,1,.11.47.34.34,0,0,1-.47.08,1.09,1.09,0,0,0-.58-.23.59.59,0,0,0-.38.12.18.18,0,0,0-.1.14.07.07,0,0,0,0,.05.14.14,0,0,0,.07.06,1.25,1.25,0,0,0,.46.16h0a2.71,2.71,0,0,1,.59.18,1,1,0,0,1,.45.38.75.75,0,0,1,.12.41.93.93,0,0,1-.4.74,1.42,1.42,0,0,1-.82.25,1.85,1.85,0,0,1-1.13-.44A.34.34,0,0,1,509.4,215.4Z" style="fill:#263238"></path><path d="M517.55,215.78a.35.35,0,0,1-.22.44l-.14,0h0a.49.49,0,0,1-.24-.07.56.56,0,0,1-.21-.22,1.86,1.86,0,0,1-.13-.76.51.51,0,0,0-.08-.27.54.54,0,0,0-.18-.19,1.45,1.45,0,0,0-.36-.15h-.74V216a.36.36,0,0,1-.71,0v-3.72a.35.35,0,0,1,.35-.35H516a1.35,1.35,0,0,1,1.36,1.36,1.32,1.32,0,0,1-.5,1,.84.84,0,0,1,.22.24,1.15,1.15,0,0,1,.21.68,1.41,1.41,0,0,0,0,.37A.34.34,0,0,1,517.55,215.78Zm-.89-2.54a.65.65,0,0,0-.65-.66h-.77v1.3H516A.65.65,0,0,0,516.66,213.24Z" style="fill:#263238"></path><path d="M518.22,214.72a1.56,1.56,0,0,1,1.54-1.58,1.51,1.51,0,0,1,1.52,1.47v0a.15.15,0,0,1,0,.06.29.29,0,0,1-.32.25h-2a.88.88,0,0,0,.21.42,1,1,0,0,0,.61.28,1,1,0,0,0,.66-.16.35.35,0,0,1,.47,0,.29.29,0,0,1,0,.41,1.59,1.59,0,0,1-2.67-1.16Zm.69-.31h1.78a1,1,0,0,0-.93-.67A.88.88,0,0,0,518.91,214.41Z" style="fill:#263238"></path><path d="M525,214.73V216a.34.34,0,0,1-.34.33.35.35,0,0,1-.33-.27,1.43,1.43,0,0,1-.84.27,1.47,1.47,0,0,1-1.07-.46,1.62,1.62,0,0,1-.43-1.11,1.58,1.58,0,0,1,.43-1.11,1.41,1.41,0,0,1,1.07-.48,1.44,1.44,0,0,1,.84.28.35.35,0,0,1,.33-.28.34.34,0,0,1,.34.34Zm-.67,0a.91.91,0,0,0-.25-.65.79.79,0,0,0-.59-.26.74.74,0,0,0-.58.26.87.87,0,0,0-.25.65.92.92,0,0,0,.25.65.75.75,0,0,0,.58.24.81.81,0,0,0,.59-.24A1,1,0,0,0,524.29,214.73Z" style="fill:#263238"></path><path d="M526,214.73a1.61,1.61,0,0,1,1.61-1.59,1.64,1.64,0,0,1,1,.35.35.35,0,0,1,.07.47.34.34,0,0,1-.47.06,1,1,0,0,0-.6-.2.91.91,0,1,0,0,1.81,1.05,1.05,0,0,0,.6-.2.34.34,0,0,1,.47.07.35.35,0,0,1-.07.47,1.76,1.76,0,0,1-1,.33A1.6,1.6,0,0,1,526,214.73Z" style="fill:#263238"></path><path d="M530.5,216a.35.35,0,0,1-.35.35.36.36,0,0,1-.34-.26s0-.06,0-.09v-3.72a.35.35,0,1,1,.7,0v1.09a1.53,1.53,0,0,1,.68-.18,1.38,1.38,0,0,1,1.37,1.38V216a.35.35,0,1,1-.69,0v-1.43a.68.68,0,1,0-1.36,0Z" style="fill:#263238"></path><path d="M533.45,214.72a1.57,1.57,0,0,1,1.54-1.58,1.51,1.51,0,0,1,1.52,1.47v.09a.3.3,0,0,1-.33.25h-2a.88.88,0,0,0,.21.42,1,1,0,0,0,.61.28,1,1,0,0,0,.66-.16.35.35,0,0,1,.47,0,.29.29,0,0,1,0,.41,1.59,1.59,0,0,1-2.67-1.16Zm.69-.31h1.79a1.06,1.06,0,0,0-.94-.67A.88.88,0,0,0,534.14,214.41Z" style="fill:#263238"></path><path d="M540.38,216a.34.34,0,0,1-.68.07,1.56,1.56,0,1,1-.86-2.89,1.46,1.46,0,0,1,.85.27v-1.19a.35.35,0,0,1,.69,0v2.5h0Zm-1.54-2.13a.84.84,0,0,0-.59.26.88.88,0,0,0-.25.64.87.87,0,0,0,.25.62.8.8,0,0,0,.59.26.79.79,0,0,0,.6-.26.87.87,0,0,0,.25-.62.88.88,0,0,0-.25-.64A.83.83,0,0,0,538.84,213.83Z" style="fill:#263238"></path><path d="M499.57,222.83v6.53a.61.61,0,0,1-.61.61.59.59,0,0,1-.61-.61v-5.44l-.45.25a.53.53,0,0,1-.31.09.59.59,0,0,1-.52-.31.6.6,0,0,1,.2-.83l1.36-.81.05,0s0,0,.05,0h.36l.07,0h0s0,0,.07,0l0,0,0,0a.11.11,0,0,1,0,0l0,.05.05,0v0s0,0,0,0,0,0,0,.05,0,0,0,.06a.43.43,0,0,0,0,.05s0,.06,0,.08Z" style="fill:#455a64"></path><path d="M505.06,225.28a2.68,2.68,0,0,1,.81,1.95,2.71,2.71,0,0,1-.81,1.93,2.67,2.67,0,0,1-1.93.81h0a2.66,2.66,0,0,1-1.93-.81.61.61,0,0,1,0-.88.62.62,0,0,1,.89,0,1.42,1.42,0,0,0,1.06.44,1.46,1.46,0,0,0,1.05-.44,1.5,1.5,0,0,0,.44-1.05,1.46,1.46,0,0,0-.44-1.07,1.51,1.51,0,0,0-2.11,0,.62.62,0,0,1-.89,0l-.12-.14s0,0,0,0a.11.11,0,0,0,0-.06s0-.05,0-.08v0a.61.61,0,0,1,0-.19l.33-2.86a.71.71,0,0,1,.28-.44l.05,0,0,0a.68.68,0,0,1,.29-.06h3.26a.62.62,0,0,1,.63.63.63.63,0,0,1-.63.62h-2.72l-.13,1.09a2.64,2.64,0,0,1,.74-.1A2.71,2.71,0,0,1,505.06,225.28Z" style="fill:#455a64"></path><path d="M511.81,225.27a2.67,2.67,0,0,1,.81,1.93,2.77,2.77,0,0,1-2.75,2.76,2.76,2.76,0,0,1-1.94-.81.63.63,0,0,1,.89-.88,1.48,1.48,0,0,0,1.05.43,1.56,1.56,0,0,0,1.06-.43,1.49,1.49,0,0,0,.44-1.07,1.44,1.44,0,0,0-.44-1,1.49,1.49,0,0,0-1.05-.44.57.57,0,0,1-.46-.2h0a.63.63,0,0,1,0-.88l1.13-1.16h-1.79a.63.63,0,0,1,0-1.25H512a.63.63,0,0,1,.63.62.61.61,0,0,1-.08.3.57.57,0,0,1-.11.16L511,224.73A2.44,2.44,0,0,1,511.81,225.27Z" style="fill:#455a64"></path><path d="M488.81,228.48a2.73,2.73,0,0,1-2.84,0,2.7,2.7,0,1,1,2.84,0Z" style="fill:#455a64"></path><path d="M488.24,225.86a.82.82,0,1,1-.81-.83A.82.82,0,0,1,488.24,225.86Z" style="fill:#fff"></path><path d="M488.81,228.14v.34a2.73,2.73,0,0,1-2.84,0v-.34a1.42,1.42,0,0,1,2.84,0Z" style="fill:#fff"></path><rect x="197.28" y="251.94" width="372.43" height="134.42" style="fill:#fff"></rect><path d="M569.71,386.36l-372.43.18h-.18v-.18L197,251.94v-.24h.25l372.43.18h.06v.06Zm0,0-.07-134.42.07.07-372.43.18.24-.25-.06,134.42-.18-.18Z" style="fill:#ebebeb"></path><polygon points="239.66 372.99 239.54 363.03 239.49 353.08 239.41 333.17 239.49 313.26 239.54 303.31 239.66 293.35 239.79 303.31 239.83 313.26 239.92 333.17 239.83 353.08 239.79 363.03 239.66 372.99" style="fill:#ebebeb"></polygon><polygon points="267.36 372.99 267.24 363.03 267.19 353.08 267.1 333.17 267.19 313.26 267.23 303.31 267.36 293.35 267.49 303.31 267.53 313.26 267.62 333.17 267.53 353.08 267.48 363.03 267.36 372.99" style="fill:#ebebeb"></polygon><polygon points="295.06 372.99 294.93 363.03 294.89 353.08 294.8 333.17 294.89 313.26 294.93 303.31 295.06 293.35 295.18 303.31 295.23 313.26 295.31 333.17 295.23 353.08 295.18 363.03 295.06 372.99" style="fill:#ebebeb"></polygon><polygon points="322.75 372.99 322.63 363.03 322.58 353.08 322.5 333.17 322.58 313.26 322.63 303.31 322.75 293.35 322.88 303.31 322.92 313.26 323.01 333.17 322.92 353.08 322.88 363.03 322.75 372.99" style="fill:#ebebeb"></polygon><polygon points="350.45 372.99 350.32 363.03 350.28 353.08 350.19 333.17 350.28 313.26 350.32 303.31 350.45 293.35 350.58 303.31 350.62 313.26 350.71 333.17 350.62 353.08 350.57 363.03 350.45 372.99" style="fill:#ebebeb"></polygon><polygon points="378.15 372.99 378.02 363.03 377.98 353.08 377.89 333.17 377.98 313.26 378.02 303.31 378.15 293.35 378.27 303.31 378.32 313.26 378.4 333.17 378.32 353.08 378.27 363.03 378.15 372.99" style="fill:#ebebeb"></polygon><polygon points="405.84 372.99 405.72 363.03 405.67 353.08 405.59 333.17 405.67 313.26 405.72 303.31 405.84 293.35 405.97 303.31 406.01 313.26 406.1 333.17 406.01 353.08 405.97 363.03 405.84 372.99" style="fill:#ebebeb"></polygon><polygon points="433.54 372.99 433.42 363.03 433.37 353.08 433.28 333.17 433.37 313.26 433.42 303.31 433.54 293.35 433.67 303.31 433.71 313.26 433.8 333.17 433.71 353.08 433.67 363.03 433.54 372.99" style="fill:#ebebeb"></polygon><polygon points="461.24 372.99 461.11 363.03 461.07 353.08 460.98 333.17 461.07 313.26 461.11 303.31 461.24 293.35 461.36 303.31 461.41 313.26 461.49 333.17 461.41 353.08 461.36 363.03 461.24 372.99" style="fill:#ebebeb"></polygon><polygon points="488.93 372.99 488.81 363.03 488.76 353.08 488.68 333.17 488.76 313.26 488.81 303.31 488.93 293.35 489.06 303.31 489.11 313.26 489.19 333.17 489.1 353.08 489.06 363.03 488.93 372.99" style="fill:#ebebeb"></polygon><polygon points="516.63 372.99 516.51 363.03 516.46 353.08 516.38 333.17 516.46 313.26 516.5 303.31 516.63 293.35 516.76 303.31 516.8 313.26 516.89 333.17 516.8 353.08 516.76 363.03 516.63 372.99" style="fill:#ebebeb"></polygon><polygon points="544.33 372.99 544.2 363.03 544.16 353.08 544.07 333.17 544.16 313.26 544.2 303.31 544.33 293.35 544.45 303.31 544.5 313.26 544.58 333.17 544.5 353.08 544.45 363.03 544.33 372.99" style="fill:#ebebeb"></polygon><polygon points="209.41 293.35 296.45 293.18 383.49 293.09 470.53 293.18 557.57 293.35 470.53 293.52 383.49 293.61 296.45 293.52 209.41 293.35" style="fill:#ebebeb"></polygon><polygon points="209.41 312.64 296.45 312.47 383.49 312.39 470.53 312.47 557.57 312.64 470.53 312.81 383.49 312.9 296.45 312.81 209.41 312.64" style="fill:#ebebeb"></polygon><polygon points="209.41 331.94 296.45 331.77 383.49 331.68 470.53 331.77 557.57 331.94 470.53 332.11 383.49 332.19 296.45 332.11 209.41 331.94" style="fill:#ebebeb"></polygon><polygon points="209.41 351.23 296.45 351.06 383.49 350.97 470.53 351.06 557.57 351.23 470.53 351.4 383.49 351.49 296.45 351.4 209.41 351.23" style="fill:#ebebeb"></polygon><path d="M212,331.94l27.63-9.88h.05l27.7-1.47h.06l.06,0,27.72,11-.07,0,27.71,4.92h-.11l27.69-2.45-.18.05c9.22-4.94,18.43-9.92,27.69-14.81l.09-.05h.1l27.7-2.1h.12l27.69,5.75-.21,0,27.72-10.56.07,0h.07L489,315.28h-.08l27.74-6.78h0l10.32.06-10.32.07h0L489,315.75h-.08L461.21,313l.14,0-27.68,10.68-.1,0-.1,0L405.76,318h.12l-27.69,2.22.19-.06c-9.21,5-18.47,9.86-27.71,14.78l-.08.05h-.1l-27.7,2.34h-.11l-27.69-5h0l0,0-27.68-11.12.12,0-27.7,1.25h.05Z" style="fill:#7E57C2"></path><path d="M242,322.23a2.31,2.31,0,1,1-2.31-2.31A2.3,2.3,0,0,1,242,322.23Z" style="fill:#fff"></path><path d="M239.66,325.06a2.83,2.83,0,1,1,2.83-2.83A2.83,2.83,0,0,1,239.66,325.06Zm0-4.62a1.8,1.8,0,1,0,1.8,1.79A1.79,1.79,0,0,0,239.66,320.44Z" style="fill:#7E57C2"></path><path d="M269.67,320.93a2.31,2.31,0,1,1-2.31-2.31A2.31,2.31,0,0,1,269.67,320.93Z" style="fill:#fff"></path><path d="M267.36,323.75a2.83,2.83,0,1,1,2.82-2.82A2.82,2.82,0,0,1,267.36,323.75Zm0-4.62a1.8,1.8,0,1,0,1.8,1.8A1.81,1.81,0,0,0,267.36,319.13Z" style="fill:#7E57C2"></path><circle cx="322.75" cy="336.92" r="2.31" style="fill:#fff"></circle><path d="M322.75,339.74a2.83,2.83,0,1,1,2.83-2.82A2.83,2.83,0,0,1,322.75,339.74Zm0-4.62a1.8,1.8,0,1,0,1.8,1.8A1.8,1.8,0,0,0,322.75,335.12Z" style="fill:#7E57C2"></path><circle cx="377.97" cy="319.92" r="2.31" style="fill:#fff"></circle><path d="M378,322.75a2.83,2.83,0,1,1,2.83-2.83A2.83,2.83,0,0,1,378,322.75Zm0-4.62a1.8,1.8,0,1,0,1.8,1.79A1.79,1.79,0,0,0,378,318.13Z" style="fill:#7E57C2"></path><path d="M435.85,323.49a2.31,2.31,0,1,1-2.31-2.31A2.3,2.3,0,0,1,435.85,323.49Z" style="fill:#fff"></path><path d="M433.54,326.31a2.83,2.83,0,1,1,2.82-2.82A2.82,2.82,0,0,1,433.54,326.31Zm0-4.62a1.8,1.8,0,1,0,1.8,1.8A1.81,1.81,0,0,0,433.54,321.69Z" style="fill:#7E57C2"></path><circle cx="350.45" cy="334.61" r="2.31" style="fill:#fff"></circle><path d="M350.45,337.43a2.83,2.83,0,1,1,2.82-2.82A2.82,2.82,0,0,1,350.45,337.43Zm0-4.62a1.8,1.8,0,1,0,1.8,1.8A1.81,1.81,0,0,0,350.45,332.81Z" style="fill:#7E57C2"></path><circle cx="405.84" cy="317.61" r="2.31" style="fill:#fff"></circle><path d="M405.84,320.44a2.83,2.83,0,1,1,2.83-2.83A2.83,2.83,0,0,1,405.84,320.44Zm0-4.62a1.8,1.8,0,1,0,1.8,1.79A1.79,1.79,0,0,0,405.84,315.82Z" style="fill:#7E57C2"></path><circle cx="488.93" cy="315.31" r="2.31" style="fill:#fff"></circle><path d="M488.93,318.13a2.83,2.83,0,1,1,2.83-2.82A2.83,2.83,0,0,1,488.93,318.13Zm0-4.62a1.8,1.8,0,1,0,1.8,1.8A1.8,1.8,0,0,0,488.93,313.51Z" style="fill:#7E57C2"></path><path d="M518.94,308.57a2.31,2.31,0,1,1-2.31-2.31A2.3,2.3,0,0,1,518.94,308.57Z" style="fill:#fff"></path><path d="M516.63,311.4a2.83,2.83,0,1,1,2.82-2.83A2.83,2.83,0,0,1,516.63,311.4Zm0-4.62a1.8,1.8,0,1,0,1.8,1.79A1.79,1.79,0,0,0,516.63,306.78Z" style="fill:#7E57C2"></path><circle cx="461.24" cy="312.51" r="2.31" style="fill:#fff"></circle><path d="M461.24,315.33a2.82,2.82,0,1,1,2.82-2.82A2.83,2.83,0,0,1,461.24,315.33Zm0-4.61a1.8,1.8,0,1,0,1.79,1.79A1.8,1.8,0,0,0,461.24,310.72Z" style="fill:#7E57C2"></path><path d="M297.37,331.94a2.31,2.31,0,1,1-2.31-2.31A2.32,2.32,0,0,1,297.37,331.94Z" style="fill:#fff"></path><path d="M295.06,334.76a2.83,2.83,0,1,1,2.82-2.82A2.83,2.83,0,0,1,295.06,334.76Zm0-4.62a1.8,1.8,0,1,0,1.79,1.8A1.81,1.81,0,0,0,295.06,330.14Z" style="fill:#7E57C2"></path><path d="M212,351.34l27.67-3.59-.08,0,27.64-19.07,0,0h0l27.67-10.39.12-.05.12,0,27.71,9.28.05,0,0,0L350.7,344.8l-.42,0c9.22-3.66,18.44-7.36,27.69-11l.2-.08.19.1L406,347.54l-.53.11,27.75-32.59.17-.2.24.1,27.68,10.42-.15,0L488.9,322H489l27.68,1.43h0L527,319.92l-10.3,3.63h0l-27.71-1.08h0L461.28,326h-.08l-.07,0-27.72-10.31.41-.1-27.65,32.66-.21.26-.31-.15-27.72-13.63h.4c-9.22,3.69-18.47,7.3-27.71,10.94l-.22.08-.2-.12-27.66-17.3.08,0L294.94,319h.24l-27.72,10.27.06,0-27.76,18.89,0,0h0Z" style="fill:#37474f"></path><circle cx="239.66" cy="347.93" r="2.31" style="fill:#fff"></circle><path d="M239.66,350.75a2.82,2.82,0,1,1,2.83-2.82A2.82,2.82,0,0,1,239.66,350.75Zm0-4.62a1.8,1.8,0,1,0,1.8,1.8A1.8,1.8,0,0,0,239.66,346.13Z" style="fill:#37474f"></path><path d="M269.67,329a2.31,2.31,0,1,1-2.31-2.31A2.32,2.32,0,0,1,269.67,329Z" style="fill:#fff"></path><path d="M267.36,331.77a2.83,2.83,0,1,1,2.82-2.82A2.82,2.82,0,0,1,267.36,331.77Zm0-4.62a1.8,1.8,0,1,0,1.8,1.8A1.81,1.81,0,0,0,267.36,327.15Z" style="fill:#37474f"></path><circle cx="322.75" cy="328.12" r="2.31" style="fill:#fff"></circle><path d="M322.75,331a2.83,2.83,0,1,1,2.83-2.83A2.83,2.83,0,0,1,322.75,331Zm0-4.62a1.8,1.8,0,1,0,1.8,1.79A1.79,1.79,0,0,0,322.75,326.33Z" style="fill:#37474f"></path><circle cx="377.97" cy="334.61" r="2.31" style="fill:#fff"></circle><path d="M378,337.43a2.83,2.83,0,1,1,2.83-2.82A2.83,2.83,0,0,1,378,337.43Zm0-4.62a1.8,1.8,0,1,0,1.8,1.8A1.8,1.8,0,0,0,378,332.81Z" style="fill:#37474f"></path><circle cx="433.54" cy="315.31" r="2.31" style="fill:#fff"></circle><path d="M433.54,318.13a2.83,2.83,0,1,1,2.82-2.82A2.82,2.82,0,0,1,433.54,318.13Zm0-4.62a1.8,1.8,0,1,0,1.8,1.8A1.81,1.81,0,0,0,433.54,313.51Z" style="fill:#37474f"></path><circle cx="350.45" cy="344.86" r="2.31" style="fill:#fff"></circle><path d="M350.45,347.68a2.83,2.83,0,1,1,2.82-2.82A2.82,2.82,0,0,1,350.45,347.68Zm0-4.62a1.8,1.8,0,1,0,1.8,1.8A1.81,1.81,0,0,0,350.45,343.06Z" style="fill:#37474f"></path><circle cx="405.84" cy="347.51" r="2.31" style="fill:#fff"></circle><path d="M405.84,350.33a2.82,2.82,0,1,1,2.83-2.82A2.82,2.82,0,0,1,405.84,350.33Zm0-4.62a1.8,1.8,0,1,0,1.8,1.8A1.8,1.8,0,0,0,405.84,345.71Z" style="fill:#37474f"></path><path d="M491.24,322.25a2.31,2.31,0,1,1-2.31-2.31A2.31,2.31,0,0,1,491.24,322.25Z" style="fill:#fff"></path><path d="M488.93,325.07a2.83,2.83,0,1,1,2.83-2.82A2.83,2.83,0,0,1,488.93,325.07Zm0-4.62a1.8,1.8,0,1,0,1.8,1.8A1.8,1.8,0,0,0,488.93,320.45Z" style="fill:#37474f"></path><path d="M518.94,323.49a2.31,2.31,0,1,1-2.31-2.31A2.3,2.3,0,0,1,518.94,323.49Z" style="fill:#fff"></path><path d="M516.63,326.31a2.83,2.83,0,1,1,2.82-2.82A2.83,2.83,0,0,1,516.63,326.31Zm0-4.62a1.8,1.8,0,1,0,1.8,1.8A1.8,1.8,0,0,0,516.63,321.69Z" style="fill:#37474f"></path><circle cx="461.24" cy="325.79" r="2.31" style="fill:#fff"></circle><path d="M461.24,328.62a2.83,2.83,0,1,1,2.82-2.83A2.83,2.83,0,0,1,461.24,328.62Zm0-4.62a1.8,1.8,0,1,0,1.79,1.79A1.8,1.8,0,0,0,461.24,324Z" style="fill:#37474f"></path><circle cx="295.06" cy="318.62" r="2.31" style="fill:#fff"></circle><path d="M295.06,321.44a2.83,2.83,0,1,1,2.82-2.82A2.83,2.83,0,0,1,295.06,321.44Zm0-4.62a1.8,1.8,0,1,0,1.79,1.8A1.81,1.81,0,0,0,295.06,316.82Z" style="fill:#37474f"></path><path d="M212,289.25l.19,39.7.11,39.69-.3-.3,86.4-.14,43.2-.07,43.2.06,86.4.14c28.8,0,57.6.18,86.4.31-28.8.13-57.6.3-86.4.31l-86.4.14-43.2.06-43.2-.07-86.4-.14h-.31v-.3l.1-39.69Z" style="fill:#dbdbdb"></path><path d="M232.85,376.82a.07.07,0,0,1,.09.05.56.56,0,0,0,.55.4.58.58,0,0,0,.59-.58v-1.35a.07.07,0,0,1,.07-.07.08.08,0,0,1,.08.07v1.35a.73.73,0,0,1-1.43.23S232.81,376.84,232.85,376.82Z" style="fill:#dbdbdb"></path><path d="M235.91,376.87h-1l-.2.51a.08.08,0,0,1-.07.05h0a.08.08,0,0,1,0-.1l.75-2a.09.09,0,0,1,.08-.05.08.08,0,0,1,.07.05l.75,2a.07.07,0,0,1,0,.1h0a.08.08,0,0,1-.07-.05Zm-.93-.15h.87l-.43-1.16Z" style="fill:#dbdbdb"></path><path d="M236.88,375.58v1.77a.09.09,0,0,1-.08.08.08.08,0,0,1-.07-.08v-2a.07.07,0,0,1,0-.08.07.07,0,0,1,.1,0l1.31,1.81v-1.76a.07.07,0,0,1,.07-.07.07.07,0,0,1,.08.07v2a.08.08,0,0,1-.08.08.09.09,0,0,1-.06,0h0Z" style="fill:#dbdbdb"></path><path d="M238.94,375.34a.08.08,0,0,1,.08-.07.07.07,0,0,1,.07.07v1.21a.73.73,0,0,0,1.45,0v-1.21a.07.07,0,0,1,.07-.07.07.07,0,0,1,.08.07v1.21a.88.88,0,1,1-1.75,0Z" style="fill:#dbdbdb"></path><path d="M242.47,376.87h-1l-.19.51a.08.08,0,0,1-.07.05h0a.07.07,0,0,1,0-.1l.75-2a.08.08,0,0,1,.07-.05.08.08,0,0,1,.08.05l.75,2a.09.09,0,0,1,0,.1h0a.08.08,0,0,1-.07-.05Zm-.92-.15h.87l-.44-1.16Z" style="fill:#dbdbdb"></path><path d="M244.36,376.94a.38.38,0,0,0-.18-.33.7.7,0,0,0-.25-.11h-.54v.85a.08.08,0,0,1-.08.08.08.08,0,0,1-.07-.08v-2a.07.07,0,0,1,.07-.07h.61a.61.61,0,0,1,.62.61.62.62,0,0,1-.36.56l0,0a.53.53,0,0,1,.3.48,1.29,1.29,0,0,0,0,.25l0,.05a.11.11,0,0,1,.09.05.09.09,0,0,1-.05.1h0a.15.15,0,0,1-.13-.1A.7.7,0,0,1,244.36,376.94Zm-.44-1.52h-.53v.93h.55a.47.47,0,0,0,0-.93Z" style="fill:#dbdbdb"></path><path d="M245.72,376.39l-.72-1s0-.09,0-.11.09,0,.11,0l.67.92.68-.92s.07,0,.11,0a.08.08,0,0,1,0,.11l-.72,1v1a.08.08,0,0,1-.07.08.09.09,0,0,1-.08-.08Z" style="fill:#dbdbdb"></path><path d="M260,375.34a.07.07,0,0,1,.07-.07h1.12a.08.08,0,0,1,.08.07.09.09,0,0,1-.08.08h-1v.85h.9a.08.08,0,0,1,.08.08.07.07,0,0,1-.08.07h-.9v.93a.08.08,0,1,1-.16,0Z" style="fill:#dbdbdb"></path><path d="M261.89,375.34a.07.07,0,0,1,.07-.07h1.11a.07.07,0,0,1,.08.07.08.08,0,0,1-.08.08h-1v.85h.9a.09.09,0,0,1,.08.08.08.08,0,0,1-.08.07H262v.85h1a.08.08,0,0,1,0,.16H262a.08.08,0,0,1-.07-.08Z" style="fill:#dbdbdb"></path><path d="M263.71,375.34a.08.08,0,0,1,.08-.07h.48a.54.54,0,0,1,.54.54.56.56,0,0,1-.21.42.62.62,0,0,1-.19,1.2h-.63a.08.08,0,0,1-.07-.08Zm.56.85a.39.39,0,1,0,0-.77h-.4v.77Zm.14,1.08a.46.46,0,0,0,.46-.46.47.47,0,0,0-.46-.47h-.54v.93Z" style="fill:#dbdbdb"></path><path d="M266.62,376.94a.38.38,0,0,0-.18-.33.7.7,0,0,0-.25-.11h-.54v.85a.08.08,0,0,1-.08.08.08.08,0,0,1-.07-.08v-2a.07.07,0,0,1,.07-.07h.62a.61.61,0,0,1,.61.61.61.61,0,0,1-.35.56l0,0a.54.54,0,0,1,.29.48,1.29,1.29,0,0,0,0,.25l0,.05a.09.09,0,0,1,.09.05.09.09,0,0,1-.05.1h0a.17.17,0,0,1-.14-.1A.7.7,0,0,1,266.62,376.94Zm-.43-1.52h-.54v.93h.55a.47.47,0,0,0,.45-.47A.46.46,0,0,0,266.19,375.42Z" style="fill:#dbdbdb"></path><path d="M267.29,375.34a.07.07,0,0,1,.07-.07.08.08,0,0,1,.08.07v1.21a.72.72,0,0,0,1.44,0v-1.21a.08.08,0,0,1,.08-.07.07.07,0,0,1,.07.07v1.21a.87.87,0,1,1-1.74,0Z" style="fill:#dbdbdb"></path><path d="M270.82,376.87h-1l-.2.51a.08.08,0,0,1-.07.05h0a.08.08,0,0,1-.05-.1l.75-2a.09.09,0,0,1,.08-.05.08.08,0,0,1,.07.05l.75,2a.07.07,0,0,1,0,.1h0a.08.08,0,0,1-.07-.05Zm-.93-.15h.87l-.43-1.16Z" style="fill:#dbdbdb"></path><path d="M272.7,376.94a.4.4,0,0,0-.17-.33.78.78,0,0,0-.25-.11h-.54v.85a.08.08,0,1,1-.16,0v-2a.08.08,0,0,1,.07-.07h.62a.61.61,0,0,1,.61.61.61.61,0,0,1-.35.56l0,0a.54.54,0,0,1,.29.48.73.73,0,0,0,0,.25.07.07,0,0,0,0,.05.09.09,0,0,1,.08.05.09.09,0,0,1-.05.1h0a.17.17,0,0,1-.14-.1A.7.7,0,0,1,272.7,376.94Zm-.43-1.52h-.53v.93h.54a.47.47,0,0,0,.46-.47A.46.46,0,0,0,272.27,375.42Z" style="fill:#dbdbdb"></path><path d="M274.07,376.39l-.73-1a.09.09,0,0,1,0-.11.07.07,0,0,1,.1,0l.68.92.68-.92a.07.07,0,0,1,.1,0s0,.07,0,.11l-.72,1v1a.08.08,0,0,1-.08.08.08.08,0,0,1-.07-.08Z" style="fill:#dbdbdb"></path><path d="M291.61,375.57l-.69,1a.08.08,0,0,1-.07,0h0a.08.08,0,0,1-.07,0l-.69-.95v1.77a.08.08,0,0,1-.07.08.08.08,0,0,1-.08-.08v-2a.09.09,0,0,1,0-.06h0a.07.07,0,0,1,.1,0l.77,1.06.77-1.06a.07.07,0,0,1,.1,0l0,0a.06.06,0,0,1,0,0v2a.07.07,0,1,1-.14,0Z" style="fill:#dbdbdb"></path><path d="M293.52,376.87h-1l-.19.51a.09.09,0,0,1-.08.05h0a.08.08,0,0,1-.05-.1l.75-2a.1.1,0,0,1,.08-.05.08.08,0,0,1,.07.05l.75,2a.07.07,0,0,1,0,.1h0a.1.1,0,0,1-.07-.05Zm-.93-.15h.88l-.44-1.16Z" style="fill:#dbdbdb"></path><path d="M295.4,376.94a.4.4,0,0,0-.17-.33.78.78,0,0,0-.25-.11h-.54v.85a.09.09,0,0,1-.08.08.08.08,0,0,1-.07-.08v-2a.07.07,0,0,1,.06-.07H295a.61.61,0,0,1,.62.61.62.62,0,0,1-.36.56l0,0a.54.54,0,0,1,.29.48.73.73,0,0,0,0,.25.07.07,0,0,0,0,.05.09.09,0,0,1,.08.05.09.09,0,0,1-.05.1h0a.18.18,0,0,1-.14-.1A.84.84,0,0,1,295.4,376.94Zm-.43-1.52h-.53v.93H295a.47.47,0,0,0,.46-.47A.46.46,0,0,0,295,375.42Z" style="fill:#dbdbdb"></path><path d="M297.28,375.23a1.18,1.18,0,0,1,.7.24.08.08,0,0,1,0,.11.07.07,0,0,1-.1,0,1,1,0,0,0-.61-.21.94.94,0,1,0,0,1.88.9.9,0,0,0,.6-.21.09.09,0,0,1,.11,0,.08.08,0,0,1,0,.11,1.12,1.12,0,0,1-.7.24,1.1,1.1,0,1,1,0-2.2Z" style="fill:#dbdbdb"></path><path d="M299.89,376.42h-1.11v.93a.08.08,0,0,1-.08.08.08.08,0,0,1-.07-.08v-2a.07.07,0,0,1,.07-.07.07.07,0,0,1,.08.07v.93h1.11v-.93a.08.08,0,0,1,.08-.07.07.07,0,0,1,.07.07v2a.08.08,0,0,1-.07.08.09.09,0,0,1-.08-.08Z" style="fill:#dbdbdb"></path><path d="M320.06,376.87h-1l-.19.51a.08.08,0,0,1-.07.05h0a.07.07,0,0,1,0-.1l.75-2a.07.07,0,0,1,.14,0l.75,2a.07.07,0,0,1,0,.1h0a.08.08,0,0,1-.07-.05Zm-.93-.15H320l-.44-1.16Z" style="fill:#dbdbdb"></path><path d="M320.87,375.34a.08.08,0,0,1,.08-.07h.61a.61.61,0,0,1,.61.61.61.61,0,0,1-.61.62H321v.85a.08.08,0,0,1-.07.08.09.09,0,0,1-.08-.08Zm.69,1a.47.47,0,0,0,0-.93H321v.93Z" style="fill:#dbdbdb"></path><path d="M323.74,376.94a.4.4,0,0,0-.17-.33.78.78,0,0,0-.25-.11h-.54v.85a.08.08,0,0,1-.16,0v-2a.08.08,0,0,1,.07-.07h.62a.61.61,0,0,1,.61.61.61.61,0,0,1-.35.56l0,0a.54.54,0,0,1,.29.48.73.73,0,0,0,0,.25.07.07,0,0,0,0,.05.09.09,0,0,1,.08.05.09.09,0,0,1,0,.1h0a.17.17,0,0,1-.14-.1A.7.7,0,0,1,323.74,376.94Zm-.43-1.52h-.53v.93h.54a.47.47,0,0,0,.46-.47A.46.46,0,0,0,323.31,375.42Z" style="fill:#dbdbdb"></path><path d="M324.61,375.34a.08.08,0,0,1,.16,0v2a.08.08,0,0,1-.16,0Z" style="fill:#dbdbdb"></path><path d="M325.61,377.43h0a.09.09,0,0,1-.08-.08v-2a.08.08,0,0,1,.08-.07.07.07,0,0,1,.07.07v1.93h1a.08.08,0,0,1,0,.16Z" style="fill:#dbdbdb"></path><path d="M349.43,375.57l-.69,1a.07.07,0,0,1-.06,0h0a.08.08,0,0,1-.07,0l-.69-.95v1.77a.08.08,0,0,1-.07.08.09.09,0,0,1-.08-.08v-2a.09.09,0,0,1,0-.06h0a.07.07,0,0,1,.1,0l.77,1.06.77-1.06a.07.07,0,0,1,.1,0l0,0a.08.08,0,0,1,0,0v2a.09.09,0,0,1-.08.08.08.08,0,0,1-.07-.08Z" style="fill:#dbdbdb"></path><path d="M351.34,376.87h-1l-.19.51s0,.05-.07.05h0a.08.08,0,0,1-.05-.1l.75-2a.1.1,0,0,1,.08-.05.08.08,0,0,1,.07.05l.75,2a.07.07,0,0,1,0,.1h0a.1.1,0,0,1-.08-.05Zm-.93-.15h.88l-.44-1.16Z" style="fill:#dbdbdb"></path><path d="M352.51,376.39l-.72-1s0-.09,0-.11.09,0,.11,0l.67.92.68-.92s.07,0,.11,0a.08.08,0,0,1,0,.11l-.72,1v1a.08.08,0,0,1-.07.08.09.09,0,0,1-.08-.08Z" style="fill:#dbdbdb"></path><path d="M374.19,376.82a.07.07,0,0,1,.09.05.59.59,0,0,0,1.14-.18v-1.35a.08.08,0,0,1,.08-.07.07.07,0,0,1,.07.07v1.35a.74.74,0,0,1-.73.74.75.75,0,0,1-.7-.51A.09.09,0,0,1,374.19,376.82Z" style="fill:#dbdbdb"></path><path d="M376.15,375.34a.08.08,0,0,1,.16,0v1.21a.72.72,0,1,0,1.44,0v-1.21a.07.07,0,0,1,.07-.07.07.07,0,0,1,.08.07v1.21a.88.88,0,1,1-1.75,0Z" style="fill:#dbdbdb"></path><path d="M378.77,375.58v1.77a.08.08,0,0,1-.07.08.09.09,0,0,1-.08-.08v-2a.07.07,0,0,1,0-.08.07.07,0,0,1,.1,0l1.31,1.81v-1.76a.08.08,0,0,1,.08-.07.07.07,0,0,1,.07.07v2a.08.08,0,0,1-.07.08.06.06,0,0,1-.06,0h0Z" style="fill:#dbdbdb"></path><path d="M380.79,375.34a.07.07,0,0,1,.07-.07H382a.07.07,0,0,1,.08.07.08.08,0,0,1-.08.08h-1v.85h.9a.09.09,0,0,1,.08.08.08.08,0,0,1-.08.07h-.9v.85h1a.08.08,0,0,1,0,.16h-1.11a.08.08,0,0,1-.07-.08Z" style="fill:#dbdbdb"></path><path d="M402.34,376.82a.07.07,0,0,1,.09.05.59.59,0,0,0,1.14-.18v-1.35a.08.08,0,0,1,.08-.07.07.07,0,0,1,.07.07v1.35a.73.73,0,0,1-1.43.23A.09.09,0,0,1,402.34,376.82Z" style="fill:#dbdbdb"></path><path d="M404.3,375.34a.08.08,0,0,1,.08-.07.07.07,0,0,1,.07.07v1.21a.73.73,0,0,0,1.45,0v-1.21a.07.07,0,0,1,.07-.07.07.07,0,0,1,.08.07v1.21a.88.88,0,1,1-1.75,0Z" style="fill:#dbdbdb"></path><path d="M406.75,377.43h0a.09.09,0,0,1-.08-.08v-2a.08.08,0,0,1,.16,0v1.93h1a.08.08,0,0,1,0,.16Z" style="fill:#dbdbdb"></path><path d="M408.59,376.39l-.72-1a.08.08,0,0,1,0-.11s.09,0,.11,0l.67.92.68-.92s.07,0,.11,0a.08.08,0,0,1,0,.11l-.72,1v1a.08.08,0,0,1-.07.08.09.09,0,0,1-.08-.08Z" style="fill:#dbdbdb"></path><path d="M428.32,376.87h-1l-.19.51a.08.08,0,0,1-.07.05h0a.08.08,0,0,1-.05-.1l.76-2a.07.07,0,0,1,.14,0l.75,2a.07.07,0,0,1,0,.1h0a.08.08,0,0,1-.07-.05Zm-.93-.15h.88l-.44-1.16Z" style="fill:#dbdbdb"></path><path d="M429.06,375.34a.07.07,0,0,1,.07-.07.08.08,0,0,1,.08.07v1.21a.72.72,0,0,0,1.44,0v-1.21a.08.08,0,0,1,.08-.07.07.07,0,0,1,.07.07v1.21a.87.87,0,1,1-1.74,0Z" style="fill:#dbdbdb"></path><path d="M432.57,376.45a.08.08,0,0,1-.08-.07.09.09,0,0,1,.08-.08h.68a.1.1,0,0,1,.07.08v.74h0l0,.06a1.11,1.11,0,1,1,0-1.71.07.07,0,0,1,0,.1.09.09,0,0,1-.11,0,.94.94,0,1,0,0,1.49v-.64Z" style="fill:#dbdbdb"></path><path d="M434.07,375.34a.08.08,0,0,1,.08-.07.07.07,0,0,1,.07.07v1.21a.73.73,0,0,0,1.45,0v-1.21a.07.07,0,0,1,.07-.07.07.07,0,0,1,.08.07v1.21a.88.88,0,1,1-1.75,0Z" style="fill:#dbdbdb"></path><path d="M436.48,377a.06.06,0,0,1,.09,0,1.2,1.2,0,0,0,.71.28.88.88,0,0,0,.48-.14.4.4,0,0,0,.18-.32.33.33,0,0,0-.17-.3,1.6,1.6,0,0,0-.5-.18h0a1.28,1.28,0,0,1-.51-.18.43.43,0,0,1-.22-.37.5.5,0,0,1,.23-.41.85.85,0,0,1,.52-.16,1.19,1.19,0,0,1,.66.25.07.07,0,0,1,0,.1.07.07,0,0,1-.09,0,1.07,1.07,0,0,0-.59-.23.72.72,0,0,0-.44.13.36.36,0,0,0-.17.3.32.32,0,0,0,.16.26,1.36,1.36,0,0,0,.46.16h0a1.5,1.5,0,0,1,.55.2.47.47,0,0,1,.23.41.56.56,0,0,1-.24.43,1,1,0,0,1-.56.17,1.32,1.32,0,0,1-.79-.31A.08.08,0,0,1,436.48,377Z" style="fill:#dbdbdb"></path><path d="M439.14,375.42h-.65a.08.08,0,0,1-.07-.08.07.07,0,0,1,.07-.07h1.45a.08.08,0,0,1,.08.07.09.09,0,0,1-.08.08h-.65v1.93a.08.08,0,0,1-.07.08.09.09,0,0,1-.08-.08Z" style="fill:#dbdbdb"></path><path d="M452.59,377a.06.06,0,0,1,.09,0,1.2,1.2,0,0,0,.71.28.88.88,0,0,0,.48-.14.4.4,0,0,0,.18-.32.33.33,0,0,0-.17-.3,1.6,1.6,0,0,0-.5-.18h0a1.28,1.28,0,0,1-.51-.18.43.43,0,0,1-.22-.37.5.5,0,0,1,.23-.41.85.85,0,0,1,.52-.16,1.19,1.19,0,0,1,.66.25s.05.07,0,.1a.07.07,0,0,1-.09,0,1.07,1.07,0,0,0-.59-.23.72.72,0,0,0-.44.13.36.36,0,0,0-.17.3.32.32,0,0,0,.16.26,1.44,1.44,0,0,0,.46.16h0a1.5,1.5,0,0,1,.55.2.47.47,0,0,1,.23.41.53.53,0,0,1-.24.43,1,1,0,0,1-.56.17,1.32,1.32,0,0,1-.79-.31A.08.08,0,0,1,452.59,377Z" style="fill:#dbdbdb"></path><path d="M454.74,375.34a.08.08,0,0,1,.08-.07h1.11a.07.07,0,0,1,.07.07.08.08,0,0,1-.07.08h-1v.85h.91a.08.08,0,0,1,.07.08.07.07,0,0,1-.07.07h-.91v.85h1a.08.08,0,0,1,0,.16h-1.12a.08.08,0,0,1-.07-.08Z" style="fill:#dbdbdb"></path><path d="M456.57,375.34a.07.07,0,0,1,.07-.07h.61a.61.61,0,0,1,.62.61.62.62,0,0,1-.62.62h-.53v.85a.08.08,0,0,1-.08.08.08.08,0,0,1-.07-.08Zm.68,1a.47.47,0,1,0,0-.93h-.53v.93Z" style="fill:#dbdbdb"></path><path d="M458.92,375.42h-.65a.08.08,0,0,1-.07-.08.07.07,0,0,1,.07-.07h1.45a.08.08,0,0,1,.08.07.09.09,0,0,1-.08.08h-.65v1.93a.08.08,0,0,1-.07.08.09.09,0,0,1-.08-.08Z" style="fill:#dbdbdb"></path><path d="M460.36,375.34a.07.07,0,0,1,.07-.07h1.12a.07.07,0,0,1,.07.07.08.08,0,0,1-.07.08h-1v.85h.91a.08.08,0,0,1,.07.08.07.07,0,0,1-.07.07h-.91v.85h1a.08.08,0,0,1,0,.16h-1.12a.08.08,0,0,1-.07-.08Z" style="fill:#dbdbdb"></path><path d="M463.85,375.57l-.69,1a.06.06,0,0,1-.06,0h0a.08.08,0,0,1-.07,0l-.69-.95v1.77a.09.09,0,0,1-.08.08.08.08,0,0,1-.07-.08v-2a.09.09,0,0,1,0-.06h0a.08.08,0,0,1,.11,0l.77,1.06.76-1.06a.08.08,0,0,1,.11,0l0,0a.06.06,0,0,1,0,0v2a.08.08,0,0,1-.07.08.09.09,0,0,1-.08-.08Z" style="fill:#dbdbdb"></path><path d="M464.79,375.34a.07.07,0,0,1,.07-.07h.48a.54.54,0,0,1,.54.54.53.53,0,0,1-.21.42.61.61,0,0,1,.43.58.62.62,0,0,1-.62.62h-.62a.08.08,0,0,1-.07-.08Zm.55.85a.39.39,0,1,0,0-.77h-.4v.77Zm.14,1.08a.46.46,0,0,0,.46-.46.47.47,0,0,0-.46-.47h-.54v.93Z" style="fill:#dbdbdb"></path><path d="M466.62,375.34a.07.07,0,0,1,.07-.07h1.11a.07.07,0,0,1,.08.07.08.08,0,0,1-.08.08h-1v.85h.9a.09.09,0,0,1,.08.08.08.08,0,0,1-.08.07h-.9v.85h1a.08.08,0,0,1,0,.16h-1.12a.09.09,0,0,1-.06-.08Z" style="fill:#dbdbdb"></path><path d="M469.58,376.94a.38.38,0,0,0-.18-.33.7.7,0,0,0-.25-.11h-.54v.85a.08.08,0,0,1-.07.08.09.09,0,0,1-.08-.08v-2a.07.07,0,0,1,.07-.07h.62a.61.61,0,0,1,.61.61.61.61,0,0,1-.35.56l0,0a.54.54,0,0,1,.29.48.73.73,0,0,0,0,.25s0,.05,0,.05a.09.09,0,0,1,.08.05.09.09,0,0,1-.05.1h0a.17.17,0,0,1-.14-.1A.7.7,0,0,1,469.58,376.94Zm-.43-1.52h-.54v.93h.55a.47.47,0,0,0,.45-.47A.46.46,0,0,0,469.15,375.42Z" style="fill:#dbdbdb"></path><path d="M482.76,375.23a1.1,1.1,0,1,1-1,1.1A1.08,1.08,0,0,1,482.76,375.23Zm0,2a.94.94,0,1,0-.89-.94A.91.91,0,0,0,482.76,377.27Z" style="fill:#dbdbdb"></path><path d="M485.37,375.23a1.21,1.21,0,0,1,.7.24.08.08,0,0,1,0,.11.08.08,0,0,1-.11,0,1,1,0,1,0-.6,1.67.9.9,0,0,0,.6-.21.08.08,0,0,1,.1,0,.07.07,0,0,1,0,.11,1.14,1.14,0,0,1-.7.24,1.1,1.1,0,1,1,0-2.2Z" style="fill:#dbdbdb"></path><path d="M487.27,375.42h-.65a.08.08,0,0,1-.07-.08.07.07,0,0,1,.07-.07h1.45a.08.08,0,0,1,.08.07.09.09,0,0,1-.08.08h-.65v1.93a.08.08,0,0,1-.07.08.09.09,0,0,1-.08-.08Z" style="fill:#dbdbdb"></path><path d="M489.49,375.23a1.1,1.1,0,1,1-1,1.1A1.06,1.06,0,0,1,489.49,375.23Zm0,2a.94.94,0,1,0-.89-.94A.91.91,0,0,0,489.49,377.27Z" style="fill:#dbdbdb"></path><path d="M491.05,375.34a.08.08,0,0,1,.08-.07h.48a.54.54,0,0,1,.54.54.56.56,0,0,1-.21.42.62.62,0,0,1,.42.58.62.62,0,0,1-.62.62h-.62a.08.08,0,0,1-.07-.08Zm.56.85a.39.39,0,0,0,0-.77h-.41v.77Zm.13,1.08a.46.46,0,0,0,.47-.46.47.47,0,0,0-.47-.47h-.54v.93Z" style="fill:#dbdbdb"></path><path d="M492.88,375.34a.08.08,0,0,1,.08-.07h1.11a.07.07,0,0,1,.07.07.08.08,0,0,1-.07.08h-1v.85h.91a.08.08,0,0,1,.07.08.07.07,0,0,1-.07.07H493v.85h1a.08.08,0,0,1,0,.16H493a.08.08,0,0,1-.07-.08Z" style="fill:#dbdbdb"></path><path d="M495.84,376.94a.4.4,0,0,0-.17-.33.78.78,0,0,0-.25-.11h-.54v.85a.09.09,0,0,1-.08.08.08.08,0,0,1-.07-.08v-2a.07.07,0,0,1,.07-.07h.61a.61.61,0,0,1,.62.61.62.62,0,0,1-.36.56l0,0a.54.54,0,0,1,.29.48,1.11,1.11,0,0,0,0,.25.07.07,0,0,0,0,.05.08.08,0,0,1,.08.05.08.08,0,0,1,0,.1h0a.18.18,0,0,1-.14-.1A.84.84,0,0,1,495.84,376.94Zm-.43-1.52h-.53v.93h.54a.47.47,0,0,0,.46-.47A.46.46,0,0,0,495.41,375.42Z" style="fill:#dbdbdb"></path><path d="M508.61,375.58v1.77a.09.09,0,0,1-.08.08.08.08,0,0,1-.07-.08v-2a.07.07,0,0,1,0-.08.07.07,0,0,1,.1,0l1.31,1.81v-1.76a.07.07,0,0,1,.07-.07.07.07,0,0,1,.08.07v2a.08.08,0,0,1-.08.08.05.05,0,0,1-.05,0h0Z" style="fill:#dbdbdb"></path><path d="M511.62,375.23a1.1,1.1,0,1,1-1,1.1A1.06,1.06,0,0,1,511.62,375.23Zm0,2a.94.94,0,1,0-.89-.94A.91.91,0,0,0,511.62,377.27Z" style="fill:#dbdbdb"></path><path d="M513.88,377.38h0l-.84-2a.1.1,0,0,1,0-.1s.09,0,.1,0l.77,1.84.78-1.84s.06-.05.1,0a.1.1,0,0,1,0,.1l-.84,2a.07.07,0,0,1,0,.06h-.07S513.88,377.4,513.88,377.38Z" style="fill:#dbdbdb"></path><path d="M515.38,375.34a.08.08,0,0,1,.08-.07h1.11a.07.07,0,0,1,.07.07.08.08,0,0,1-.07.08h-1v.85h.9a.08.08,0,0,1,.07.08.07.07,0,0,1-.07.07h-.9v.85h1a.08.08,0,0,1,0,.16h-1.12a.1.1,0,0,1-.07-.08Z" style="fill:#dbdbdb"></path><path d="M518.88,375.57l-.69,1a.08.08,0,0,1-.07,0h0a.08.08,0,0,1-.07,0l-.69-.95v1.77a.08.08,0,0,1-.07.08.09.09,0,0,1-.08-.08v-2a.09.09,0,0,1,0-.06h0a.07.07,0,0,1,.1,0l.77,1.06.77-1.06a.07.07,0,0,1,.1,0l0,0a.08.08,0,0,1,0,0v2a.09.09,0,0,1-.08.08.08.08,0,0,1-.07-.08Z" style="fill:#dbdbdb"></path><path d="M519.81,375.34a.08.08,0,0,1,.08-.07h.48a.54.54,0,0,1,.53.54.55.55,0,0,1-.2.42.62.62,0,0,1,.42.58.62.62,0,0,1-.62.62h-.62a.08.08,0,0,1-.07-.08Zm.56.85a.39.39,0,0,0,0-.77H520v.77Zm.13,1.08a.46.46,0,0,0,.47-.46.47.47,0,0,0-.47-.47H520v.93Z" style="fill:#dbdbdb"></path><path d="M521.64,375.34a.08.08,0,0,1,.08-.07h1.11a.07.07,0,0,1,.07.07.08.08,0,0,1-.07.08h-1v.85h.91a.08.08,0,0,1,.07.08.07.07,0,0,1-.07.07h-.91v.85h1a.08.08,0,0,1,0,.16h-1.12a.08.08,0,0,1-.07-.08Z" style="fill:#dbdbdb"></path><path d="M524.6,376.94a.4.4,0,0,0-.17-.33.78.78,0,0,0-.25-.11h-.54v.85a.09.09,0,0,1-.08.08.08.08,0,0,1-.07-.08v-2a.07.07,0,0,1,.06-.07h.62a.61.61,0,0,1,.62.61.62.62,0,0,1-.36.56l0,0a.54.54,0,0,1,.29.48.73.73,0,0,0,0,.25.07.07,0,0,0,0,.05.09.09,0,0,1,.08.05.09.09,0,0,1,0,.1h0a.18.18,0,0,1-.14-.1A.84.84,0,0,1,524.6,376.94Zm-.43-1.52h-.53v.93h.54a.47.47,0,0,0,.46-.47A.46.46,0,0,0,524.17,375.42Z" style="fill:#dbdbdb"></path><path d="M536.56,377.43h0a.08.08,0,0,1-.07-.08v-2a.08.08,0,0,1,.08-.07h.4a1.08,1.08,0,1,1,0,2.16Zm.4-.16a.93.93,0,1,0,0-1.85h-.33v1.85Z" style="fill:#dbdbdb"></path><path d="M538.54,375.34a.08.08,0,0,1,.08-.07h1.11a.07.07,0,0,1,.07.07.08.08,0,0,1-.07.08h-1v.85h.91a.08.08,0,0,1,.07.08.07.07,0,0,1-.07.07h-.91v.85h1a.08.08,0,0,1,0,.16h-1.12a.08.08,0,0,1-.07-.08Z" style="fill:#dbdbdb"></path><path d="M541.4,375.23a1.21,1.21,0,0,1,.7.24.08.08,0,0,1,0,.11.08.08,0,0,1-.11,0,1,1,0,1,0-.6,1.67.9.9,0,0,0,.6-.21.08.08,0,0,1,.1,0,.07.07,0,0,1,0,.11,1.14,1.14,0,0,1-.7.24,1.1,1.1,0,1,1,0-2.2Z" style="fill:#dbdbdb"></path><path d="M542.74,375.34a.08.08,0,0,1,.08-.07h1.11a.07.07,0,0,1,.07.07.08.08,0,0,1-.07.08h-1v.85h.9a.08.08,0,0,1,.07.08.07.07,0,0,1-.07.07h-.9v.85h1a.08.08,0,0,1,0,.16h-1.12a.1.1,0,0,1-.07-.08Z" style="fill:#dbdbdb"></path><path d="M546.24,375.57l-.69,1a.07.07,0,0,1-.06,0h0a.08.08,0,0,1-.07,0l-.69-.95v1.77a.08.08,0,0,1-.07.08.09.09,0,0,1-.08-.08v-2a.09.09,0,0,1,0-.06h0a.07.07,0,0,1,.1,0l.77,1.06.77-1.06a.07.07,0,0,1,.1,0l0,0a.08.08,0,0,1,0,0v2a.09.09,0,0,1-.08.08.08.08,0,0,1-.07-.08Z" style="fill:#dbdbdb"></path><path d="M547.17,375.34a.08.08,0,0,1,.08-.07h.48a.54.54,0,0,1,.53.54.55.55,0,0,1-.2.42.62.62,0,0,1,.42.58.62.62,0,0,1-.62.62h-.62a.08.08,0,0,1-.07-.08Zm.56.85a.39.39,0,0,0,0-.77h-.41v.77Zm.13,1.08a.46.46,0,0,0,.47-.46.47.47,0,0,0-.47-.47h-.54v.93Z" style="fill:#dbdbdb"></path><path d="M549,375.34a.08.08,0,0,1,.08-.07h1.11a.07.07,0,0,1,.07.07.08.08,0,0,1-.07.08h-1v.85h.91a.08.08,0,0,1,.07.08.07.07,0,0,1-.07.07h-.91v.85h1a.08.08,0,0,1,0,.16h-1.12a.08.08,0,0,1-.07-.08Z" style="fill:#dbdbdb"></path><path d="M552,376.94a.4.4,0,0,0-.17-.33.78.78,0,0,0-.25-.11H551v.85a.09.09,0,0,1-.08.08.08.08,0,0,1-.07-.08v-2a.07.07,0,0,1,.06-.07h.62a.61.61,0,0,1,.62.61.62.62,0,0,1-.36.56l0,0a.54.54,0,0,1,.29.48.73.73,0,0,0,0,.25.07.07,0,0,0,0,.05.09.09,0,0,1,.08.05.08.08,0,0,1,0,.1h0a.18.18,0,0,1-.14-.1A.84.84,0,0,1,552,376.94Zm-.43-1.52H551v.93h.54a.47.47,0,0,0,.46-.47A.46.46,0,0,0,551.53,375.42Z" style="fill:#dbdbdb"></path><path d="M213.71,264.64a2.31,2.31,0,0,1,0,3.19,2,2,0,0,1-1.51.68,2.11,2.11,0,0,1-1.55-.68,2.36,2.36,0,0,1,0-3.19,2.11,2.11,0,0,1,1.55-.68A2,2,0,0,1,213.71,264.64Zm-.08,1.6a1.65,1.65,0,0,0-.43-1.11,1.36,1.36,0,0,0-2,0,1.6,1.6,0,0,0-.43,1.11,1.55,1.55,0,0,0,.43,1.09,1.34,1.34,0,0,0,2,0A1.6,1.6,0,0,0,213.63,266.24Z" style="fill:#263238"></path><path d="M218,265.86l-1,2.45s0,0,0,0h0l0,0a0,0,0,0,1,0,0l0,0h0a.05.05,0,0,1,0,0h-.28l0,0h0l0,0h0l0,0h0s0,0,0,0l-1-2.45a.32.32,0,0,1,.19-.43.32.32,0,0,1,.42.18l.73,1.72.73-1.72a.31.31,0,0,1,.42-.18A.32.32,0,0,1,218,265.86Z" style="fill:#263238"></path><path d="M218.79,266.93a1.56,1.56,0,0,1,1.54-1.58,1.51,1.51,0,0,1,1.52,1.47v0a.15.15,0,0,1,0,.06.3.3,0,0,1-.32.25h-2a.88.88,0,0,0,.21.42,1,1,0,0,0,.61.28,1,1,0,0,0,.65-.16.37.37,0,0,1,.48,0,.29.29,0,0,1,0,.41,1.59,1.59,0,0,1-2.67-1.16Zm.68-.31h1.79a1,1,0,0,0-.93-.67A.89.89,0,0,0,219.47,266.62Z" style="fill:#263238"></path><path d="M224.67,265.69a.34.34,0,0,1-.34.33.64.64,0,0,0-.38.12,1,1,0,0,0-.29.3,2.2,2.2,0,0,0-.26.53v1.21a.34.34,0,0,1-.35.33.33.33,0,0,1-.33-.33v-2.49a.33.33,0,0,1,.33-.33.34.34,0,0,1,.35.33v0l.14-.13a1.4,1.4,0,0,1,.79-.24A.33.33,0,0,1,224.67,265.69Z" style="fill:#263238"></path><path d="M228,266.94v1.24a.34.34,0,0,1-.34.33.35.35,0,0,1-.33-.27,1.43,1.43,0,0,1-.84.27,1.47,1.47,0,0,1-1.07-.46,1.66,1.66,0,0,1,0-2.23,1.43,1.43,0,0,1,1.91-.19.35.35,0,0,1,.33-.28.34.34,0,0,1,.34.34Zm-.67,0a.91.91,0,0,0-.25-.65.79.79,0,0,0-.59-.26.75.75,0,0,0-.58.26.87.87,0,0,0-.24.65.92.92,0,0,0,.24.65.77.77,0,0,0,.58.24.81.81,0,0,0,.59-.24A1,1,0,0,0,227.34,266.94Z" style="fill:#263238"></path><path d="M229.72,264.09a.36.36,0,0,1,.36.35v3.72a.36.36,0,0,1-.36.35.35.35,0,0,1-.34-.35v-3.72A.35.35,0,0,1,229.72,264.09Z" style="fill:#263238"></path><path d="M235.79,268a.34.34,0,0,1-.22.44l-.14,0h0a.53.53,0,0,1-.25-.07.61.61,0,0,1-.2-.22,1.7,1.7,0,0,1-.13-.76.62.62,0,0,0-.08-.27.57.57,0,0,0-.19-.19,1.11,1.11,0,0,0-.35-.15h-.75v1.37a.35.35,0,0,1-.35.35.35.35,0,0,1-.35-.35v-3.72a.34.34,0,0,1,.35-.35h1.13a1.35,1.35,0,0,1,.86,2.39,1,1,0,0,1,.22.24,1.15,1.15,0,0,1,.21.68,1.59,1.59,0,0,0,0,.37A.32.32,0,0,1,235.79,268Zm-.88-2.54a.65.65,0,0,0-.65-.66h-.78v1.3h.78A.65.65,0,0,0,234.91,265.45Z" style="fill:#263238"></path><path d="M236.46,266.93a1.57,1.57,0,0,1,1.54-1.58,1.51,1.51,0,0,1,1.53,1.47v0a.15.15,0,0,1,0,.06.3.3,0,0,1-.33.25h-2a.82.82,0,0,0,.22.42,1,1,0,0,0,.6.28,1,1,0,0,0,.66-.16.35.35,0,0,1,.47,0,.28.28,0,0,1,0,.41,1.55,1.55,0,0,1-1.13.42A1.58,1.58,0,0,1,236.46,266.93Zm.69-.31h1.79A1,1,0,0,0,238,266,.89.89,0,0,0,237.15,266.62Z" style="fill:#263238"></path><path d="M242.87,265.86l-1,2.45a.07.07,0,0,1,0,0h0l0,0h0l0,0h0s0,0,0,0h-.27a.09.09,0,0,1-.06,0h0l0,0h0l0,0h0s0,0,0,0l-1-2.45a.32.32,0,0,1,.19-.43.32.32,0,0,1,.42.18l.73,1.72.73-1.72a.31.31,0,0,1,.42-.18A.32.32,0,0,1,242.87,265.86Z" style="fill:#263238"></path><path d="M243.64,266.93a1.56,1.56,0,0,1,1.54-1.58,1.51,1.51,0,0,1,1.52,1.47v0a.15.15,0,0,1,0,.06.29.29,0,0,1-.32.25h-2a.88.88,0,0,0,.21.42,1,1,0,0,0,.61.28,1,1,0,0,0,.66-.16.35.35,0,0,1,.47,0,.29.29,0,0,1,0,.41,1.59,1.59,0,0,1-2.67-1.16Zm.69-.31h1.78a1,1,0,0,0-.93-.67A.88.88,0,0,0,244.33,266.62Z" style="fill:#263238"></path><path d="M250.34,266.66v1.52a.33.33,0,0,1-.33.33.34.34,0,0,1-.34-.33v-1.52A.64.64,0,0,0,249,266a.62.62,0,0,0-.63.63v1.52a.1.1,0,0,1,0,.06.34.34,0,0,1-.33.27.34.34,0,0,1-.34-.33v-2.49a.34.34,0,0,1,.34-.34.35.35,0,0,1,.31.2,1.26,1.26,0,0,1,.67-.2A1.32,1.32,0,0,1,250.34,266.66Z" style="fill:#263238"></path><path d="M252.83,268.51a1.32,1.32,0,0,1-1.32-1.31v-1.51a.34.34,0,0,1,.34-.34.34.34,0,0,1,.33.34v1.51a.64.64,0,0,0,.65.64.66.66,0,0,0,.66-.64v-1.51a.34.34,0,0,1,.33-.34.36.36,0,0,1,.34.34v1.51A1.33,1.33,0,0,1,252.83,268.51Z" style="fill:#263238"></path><path d="M255.23,266.93a1.56,1.56,0,0,1,1.54-1.58,1.51,1.51,0,0,1,1.52,1.47v0a.15.15,0,0,1,0,.06.3.3,0,0,1-.33.25h-2a.88.88,0,0,0,.21.42,1,1,0,0,0,.61.28,1,1,0,0,0,.65-.16.37.37,0,0,1,.48,0,.29.29,0,0,1,0,.41,1.59,1.59,0,0,1-2.67-1.16Zm.68-.31h1.79a1,1,0,0,0-.93-.67A.89.89,0,0,0,255.91,266.62Z" style="fill:#263238"></path><path d="M532.67,264.79h-1v3.37a.34.34,0,0,1-.35.35.35.35,0,0,1-.35-.35v-3.37h-1a.35.35,0,0,1-.34-.35.34.34,0,0,1,.34-.35h2.7a.35.35,0,0,1,.35.35A.36.36,0,0,1,532.67,264.79Z" style="fill:#ebebeb"></path><path d="M534.57,268.16a.35.35,0,0,1-.36.35.34.34,0,0,1-.33-.26.24.24,0,0,1,0-.09v-3.72a.36.36,0,0,1,.71,0v1.09a1.52,1.52,0,0,1,.67-.18,1.38,1.38,0,0,1,1.38,1.38v1.43a.35.35,0,1,1-.69,0v-1.43a.7.7,0,0,0-.69-.68.69.69,0,0,0-.67.68Z" style="fill:#ebebeb"></path><path d="M538.43,264.56a.35.35,0,1,1-.69,0v-.13a.35.35,0,0,1,.69,0Zm0,1.14v2.47a.35.35,0,0,1-.69,0V265.7a.35.35,0,0,1,.69,0Z" style="fill:#ebebeb"></path><path d="M539.36,267.61a.33.33,0,0,1,.47-.05,1.21,1.21,0,0,0,.7.27.78.78,0,0,0,.43-.12.23.23,0,0,0,.11-.19s0,0,0-.06,0,0-.08-.07a1.28,1.28,0,0,0-.5-.18h0a2.21,2.21,0,0,1-.55-.17,1.08,1.08,0,0,1-.44-.36.77.77,0,0,1-.1-.4.89.89,0,0,1,.37-.7,1.34,1.34,0,0,1,.77-.23,1.61,1.61,0,0,1,1,.35.35.35,0,0,1,.1.47.32.32,0,0,1-.46.08,1.12,1.12,0,0,0-.59-.23.58.58,0,0,0-.37.12c-.09.05-.11.11-.11.14s0,0,0,.05,0,0,.07.06a1.19,1.19,0,0,0,.46.16h0a2.71,2.71,0,0,1,.59.18,1,1,0,0,1,.45.38.85.85,0,0,1,.12.41.93.93,0,0,1-.4.74,1.42,1.42,0,0,1-.82.25,1.83,1.83,0,0,1-1.13-.44A.33.33,0,0,1,539.36,267.61Z" style="fill:#ebebeb"></path><path d="M547.66,264.68l-1.3,1.78v1.7a.34.34,0,0,1-.34.35.35.35,0,0,1-.35-.35v-1.7l-1.28-1.78a.33.33,0,0,1,.07-.48.34.34,0,0,1,.48.08l1.08,1.48,1.08-1.48a.34.34,0,0,1,.48-.08A.35.35,0,0,1,547.66,264.68Z" style="fill:#ebebeb"></path><path d="M547.41,266.93a1.57,1.57,0,0,1,1.54-1.58,1.52,1.52,0,0,1,1.53,1.47v0a.15.15,0,0,1,0,.06.3.3,0,0,1-.33.25h-2a.82.82,0,0,0,.22.42,1,1,0,0,0,.6.28,1,1,0,0,0,.66-.16.35.35,0,0,1,.47,0,.28.28,0,0,1,0,.41,1.59,1.59,0,0,1-2.67-1.16Zm.69-.31h1.79A1.06,1.06,0,0,0,549,266,.89.89,0,0,0,548.1,266.62Z" style="fill:#ebebeb"></path><path d="M554.15,266.94v1.24a.33.33,0,0,1-.66.06,1.45,1.45,0,0,1-.84.27,1.49,1.49,0,0,1-1.08-.46,1.66,1.66,0,0,1,0-2.23,1.44,1.44,0,0,1,1.92-.19.33.33,0,0,1,.66.06Zm-.67,0a.87.87,0,0,0-.25-.65.77.77,0,0,0-.58-.26.76.76,0,0,0-.59.26.91.91,0,0,0-.24.65,1,1,0,0,0,.24.65.78.78,0,0,0,.59.24.78.78,0,0,0,.58-.24A.92.92,0,0,0,553.48,266.94Z" style="fill:#ebebeb"></path><path d="M557.33,265.69a.33.33,0,0,1-.33.33.62.62,0,0,0-.38.12,1,1,0,0,0-.29.3,2.2,2.2,0,0,0-.26.53v1.21a.34.34,0,0,1-.35.33.33.33,0,0,1-.33-.33v-2.49a.33.33,0,0,1,.33-.33.34.34,0,0,1,.35.33v0l.13-.13a1.43,1.43,0,0,1,.8-.24A.32.32,0,0,1,557.33,265.69Z" style="fill:#ebebeb"></path><path d="M222.45,273.78a.47.47,0,0,1,.48.47v.25a3.93,3.93,0,0,1,1.71.6.59.59,0,0,1,.33.53.61.61,0,0,1-.95.51,4.09,4.09,0,0,0-1.14-.48v2.12c1.68.42,2.4,1.1,2.4,2.28s-.95,2-2.35,2.16v.66a.47.47,0,0,1-.48.48.48.48,0,0,1-.49-.48v-.68a4.79,4.79,0,0,1-2.27-.87.62.62,0,0,1-.29-.53.6.6,0,0,1,.6-.61.65.65,0,0,1,.37.12,3.88,3.88,0,0,0,1.64.75v-2.18c-1.62-.42-2.37-1-2.37-2.28a2.22,2.22,0,0,1,2.32-2.12v-.23A.48.48,0,0,1,222.45,273.78Zm-.44,3.77v-2c-.71.07-1.07.44-1.07.93S221.16,277.27,222,277.55Zm.87,1.54v2c.71-.08,1.1-.43,1.1-1S223.73,279.35,222.88,279.09Z" style="fill:#7E57C2"></path><path d="M231.43,281.61a.6.6,0,0,1-.6.61h-3.94a.61.61,0,0,1-.46-.2.6.6,0,0,1,0-.86l3.27-3a1.39,1.39,0,0,0,.47-1.06,1.42,1.42,0,0,0-.37-1,1.37,1.37,0,0,0-1.06-.47,1.41,1.41,0,0,0-1,.37l-.35.31a.6.6,0,0,1-.86-.05.61.61,0,0,1,0-.86l.35-.31a2.59,2.59,0,0,1,1.78-.69,2.65,2.65,0,0,1,2,.88,2.61,2.61,0,0,1,.68,1.78,2.64,2.64,0,0,1-.87,2L228.47,281h2.36A.61.61,0,0,1,231.43,281.61Z" style="fill:#7E57C2"></path><path d="M237.16,277.52a2.68,2.68,0,0,1,.8,1.93,2.75,2.75,0,0,1-.8,1.95,2.74,2.74,0,0,1-3.89,0,.63.63,0,0,1,.89-.89,1.47,1.47,0,0,0,1.05.44,1.51,1.51,0,0,0,1.06-.44,1.45,1.45,0,0,0,.44-1.06,1.43,1.43,0,0,0-.44-1.05,1.47,1.47,0,0,0-1.05-.44.55.55,0,0,1-.45-.2h0a.64.64,0,0,1,0-.89l1.13-1.15h-1.79a.63.63,0,0,1,0-1.25h3.26a.62.62,0,0,1,.63.62.73.73,0,0,1-.07.3l-.11.16-1.4,1.43A2.63,2.63,0,0,1,237.16,277.52Z" style="fill:#7E57C2"></path><path d="M239.85,283.21a1,1,0,0,0,.75-1,.81.81,0,0,1-.63-.75v-.09a.72.72,0,0,1,.75-.74c.5,0,.8.37.8,1v.12a2.2,2.2,0,0,1-.55,1.62,1.69,1.69,0,0,1-1,.47.3.3,0,0,1-.34-.31A.32.32,0,0,1,239.85,283.21Z" style="fill:#7E57C2"></path><path d="M246.34,277.53a2.72,2.72,0,0,1,.81,1.94,2.76,2.76,0,0,1-.81,1.94,2.72,2.72,0,0,1-1.94.81h0a2.69,2.69,0,0,1-1.92-.81.59.59,0,0,1,0-.88.61.61,0,0,1,.88,0,1.49,1.49,0,0,0,1.06.44,1.51,1.51,0,0,0,1.06-.44,1.55,1.55,0,0,0,.44-1.06,1.49,1.49,0,0,0-.44-1.06,1.44,1.44,0,0,0-1.06-.43,1.47,1.47,0,0,0-1.06.43.61.61,0,0,1-.88,0,1.49,1.49,0,0,1-.12-.14s0,0,0,0a.08.08,0,0,0,0-.05s0-.06,0-.08,0,0,0,0a.6.6,0,0,1,0-.19l.33-2.86a.65.65,0,0,1,.28-.45l0,0,0,0a.61.61,0,0,1,.28-.07h3.27a.63.63,0,1,1,0,1.25H243.8l-.14,1.1a2.74,2.74,0,0,1,2.68.71Z" style="fill:#7E57C2"></path><path d="M249.38,281.61v-6.47a.62.62,0,0,1,.61-.61.61.61,0,0,1,.61.61v3.17l3.59-3.59a.59.59,0,0,1,.86,0,.62.62,0,0,1,0,.86L252.62,278l2.45,3.22a.59.59,0,0,1-.09.85.55.55,0,0,1-.38.15.61.61,0,0,1-.46-.22l-2.39-3.13L250.6,280v1.57a.61.61,0,0,1-.61.61A.61.61,0,0,1,249.38,281.61Z" style="fill:#7E57C2"></path><path d="M319.73,264.79h-1v3.37a.35.35,0,1,1-.7,0v-3.37h-1a.36.36,0,0,1-.35-.35.35.35,0,0,1,.35-.35h2.7a.35.35,0,0,1,.35.35A.36.36,0,0,1,319.73,264.79Z" style="fill:#263238"></path><path d="M320.49,268.05a1.55,1.55,0,0,1-.44-1.11,1.62,1.62,0,0,1,.44-1.11,1.45,1.45,0,0,1,1.08-.48,1.39,1.39,0,0,1,1.06.48,1.62,1.62,0,0,1,.44,1.11,1.55,1.55,0,0,1-.44,1.11,1.39,1.39,0,0,1-1.06.48A1.45,1.45,0,0,1,320.49,268.05Zm.25-1.11a1,1,0,0,0,.23.67.83.83,0,0,0,.6.23.82.82,0,0,0,.58-.23,1,1,0,0,0,.25-.67,1,1,0,0,0-.25-.66.87.87,0,0,0-.58-.24.88.88,0,0,0-.6.24A1,1,0,0,0,320.74,266.94Z" style="fill:#263238"></path><path d="M325.44,265.7a.35.35,0,0,1-.35.35h-.16v1.76a.35.35,0,0,1,.35.35.34.34,0,0,1-.35.35.71.71,0,0,1-.7-.7v-1.76h-.18a.35.35,0,0,1-.35-.35.34.34,0,0,1,.35-.35h.18v-.91a.35.35,0,0,1,.36-.35.34.34,0,0,1,.34.35v.91h.16A.35.35,0,0,1,325.44,265.7Z" style="fill:#263238"></path><path d="M329,266.94v1.24a.33.33,0,0,1-.33.33.34.34,0,0,1-.33-.27,1.45,1.45,0,0,1-.84.27,1.51,1.51,0,0,1-1.08-.46,1.66,1.66,0,0,1,0-2.23,1.48,1.48,0,0,1,1.08-.47,1.46,1.46,0,0,1,.84.28.34.34,0,0,1,.33-.28.34.34,0,0,1,.33.34Zm-.67,0a.91.91,0,0,0-.24-.65.8.8,0,0,0-.59-.26.77.77,0,0,0-.59.26.91.91,0,0,0-.24.65,1,1,0,0,0,.24.65.79.79,0,0,0,.59.24.82.82,0,0,0,.59-.24A1,1,0,0,0,328.36,266.94Z" style="fill:#263238"></path><path d="M330.75,264.09a.35.35,0,0,1,.35.35v3.72a.35.35,0,1,1-.7,0v-3.72A.35.35,0,0,1,330.75,264.09Z" style="fill:#263238"></path><circle cx="308.67" cy="266.57" r="1.94" style="fill:#7E57C2"></circle><path d="M359.2,266.79h-.78v1.37a.35.35,0,0,1-.7,0v-3.72a.35.35,0,0,1,.35-.35h1.13a1.35,1.35,0,1,1,0,2.7Zm-.78-.7h.78a.65.65,0,1,0,0-1.3h-.78Z" style="fill:#263238"></path><path d="M362,264.56a.34.34,0,0,1-.34.35.35.35,0,0,1-.34-.35v-.13a.34.34,0,0,1,.34-.34.33.33,0,0,1,.34.34Zm0,1.14v2.47a.33.33,0,0,1-.34.34.34.34,0,0,1-.34-.34V265.7a.33.33,0,0,1,.34-.34A.33.33,0,0,1,362,265.7Z" style="fill:#263238"></path><path d="M363.11,269.36v-2.42h0v-1.25a.34.34,0,0,1,.33-.34.35.35,0,0,1,.35.26,1.62,1.62,0,0,1,.86-.26,1.57,1.57,0,0,1,1.53,1.59,1.55,1.55,0,0,1-1.53,1.56,1.49,1.49,0,0,1-.85-.25v1.11a.36.36,0,0,1-.36.34A.35.35,0,0,1,363.11,269.36Zm.69-2.42a.84.84,0,0,0,.25.63.76.76,0,0,0,.6.26.78.78,0,0,0,.59-.26.92.92,0,0,0,.25-.63.94.94,0,0,0-.25-.64.82.82,0,0,0-.59-.26.79.79,0,0,0-.6.26A.86.86,0,0,0,363.8,266.94Z" style="fill:#263238"></path><path d="M367,266.93a1.57,1.57,0,0,1,1.54-1.58,1.51,1.51,0,0,1,1.52,1.47v.09a.3.3,0,0,1-.33.25h-2a.88.88,0,0,0,.21.42,1,1,0,0,0,.61.28,1,1,0,0,0,.66-.16.35.35,0,0,1,.47,0,.29.29,0,0,1,0,.41,1.59,1.59,0,0,1-2.67-1.16Zm.69-.31h1.79a1.06,1.06,0,0,0-.94-.67A.88.88,0,0,0,367.68,266.62Z" style="fill:#263238"></path><path d="M371.45,264.09a.35.35,0,0,1,.35.35v3.72a.35.35,0,0,1-.7,0v-3.72A.35.35,0,0,1,371.45,264.09Z" style="fill:#263238"></path><path d="M373.32,264.56a.34.34,0,1,1-.68,0v-.13a.34.34,0,1,1,.68,0Zm0,1.14v2.47a.34.34,0,1,1-.68,0V265.7a.34.34,0,0,1,.68,0Z" style="fill:#263238"></path><path d="M377,266.66v1.52a.33.33,0,0,1-.66,0v-1.52a.65.65,0,0,0-.66-.63.62.62,0,0,0-.63.63v1.52a.1.1,0,0,1,0,.06.34.34,0,0,1-.33.27.34.34,0,0,1-.34-.33v-2.49a.34.34,0,0,1,.34-.34.35.35,0,0,1,.31.2,1.26,1.26,0,0,1,.67-.2A1.32,1.32,0,0,1,377,266.66Z" style="fill:#263238"></path><path d="M378.05,266.93a1.57,1.57,0,0,1,1.55-1.58,1.51,1.51,0,0,1,1.52,1.47v0a.15.15,0,0,1,0,.06.3.3,0,0,1-.33.25h-2a1,1,0,0,0,.22.42,1,1,0,0,0,.61.28,1,1,0,0,0,.65-.16.37.37,0,0,1,.48,0,.29.29,0,0,1,0,.41,1.6,1.6,0,0,1-2.68-1.16Zm.69-.31h1.79a1,1,0,0,0-.93-.67A.89.89,0,0,0,378.74,266.62Z" style="fill:#263238"></path><circle cx="349.37" cy="266.57" r="1.94" style="fill:#37474f"></circle><rect x="166.1" y="110.41" width="16.6" height="287.02" style="fill:#7E57C2"></rect><polygon points="177.19 140.17 176.57 140.17 176.57 143.01 175.42 143.01 175.42 141.56 173.38 141.56 173.38 143.01 172.22 143.01 172.22 140.17 171.6 140.17 174.4 137.28 177.19 140.17" style="fill:#fff"></polygon><rect x="171.38" y="116.16" width="6.03" height="0.96" style="fill:#fff"></rect><rect x="171.38" y="118.54" width="6.03" height="0.96" style="fill:#fff"></rect><rect x="171.38" y="120.92" width="6.03" height="0.96" style="fill:#fff"></rect><rect x="166.1" y="148.38" width="16.6" height="16.6" style="opacity:0.1"></rect><rect x="171.87" y="156.22" width="1.22" height="2.12" style="fill:#fff"></rect><rect x="173.79" y="155.03" width="1.22" height="3.31" style="fill:#fff"></rect><rect x="175.7" y="153.55" width="1.22" height="4.78" style="fill:#fff"></rect><path d="M174.55,171.16a1.14,1.14,0,1,1-1.13-1.13A1.14,1.14,0,0,1,174.55,171.16Z" style="fill:#fff"></path><path d="M173.36,172.3h.11a1.49,1.49,0,0,1,1.49,1.49v.78a0,0,0,0,1,0,0h-3.09a0,0,0,0,1,0,0v-.78A1.49,1.49,0,0,1,173.36,172.3Z" style="fill:#fff"></path><path d="M176.51,173.15a1.14,1.14,0,1,1-1.13-1.13A1.14,1.14,0,0,1,176.51,173.15Z" style="fill:#fff"></path><path d="M175.32,174.29h.11a1.49,1.49,0,0,1,1.49,1.49v.78a0,0,0,0,1,0,0h-3.09a0,0,0,0,1,0,0v-.78A1.49,1.49,0,0,1,175.32,174.29Z" style="fill:#fff"></path><path d="M176.59,223.53a.34.34,0,0,1-.17-.32V223a.34.34,0,0,1,.17-.32l.38-.22-.72-1.26-.39.22a.34.34,0,0,1-.36,0l-.18-.11a.35.35,0,0,1-.2-.31v-.44h-1.45V221a.36.36,0,0,1-.19.31,1.18,1.18,0,0,0-.19.11.33.33,0,0,1-.36,0l-.38-.22-.73,1.26.39.22a.34.34,0,0,1,.17.31.45.45,0,0,0,0,.11.49.49,0,0,0,0,.12.34.34,0,0,1-.17.31l-.39.22.73,1.26.38-.22a.36.36,0,0,1,.36,0l.2.11a.35.35,0,0,1,.18.31v.44h1.45v-.44a.35.35,0,0,1,.2-.31l.18-.11a.34.34,0,0,1,.36,0l.39.22.72-1.26Zm-2,.75a1.19,1.19,0,1,1,1-1A1.18,1.18,0,0,1,174.55,224.28Z" style="fill:#fff"></path><rect x="171.68" y="188.17" width="5.44" height="3.45" style="fill:#fff"></rect><path d="M177.12,188.17l-.67.62-.67.6-.7.62,0,0c-.2.19-.41.37-.62.55l0,0,0,0-.63-.55,0,0-.71-.62-.67-.6-.66-.62.69.55.69.57.77.64h0l.57.49.57-.49h0l.76-.64.69-.57Z" style="fill:#7E57C2"></path><path d="M173.83,190h0l-.09.07a4.35,4.35,0,0,1-.42.33c-.17.14-.35.26-.53.39l-.54.36c-.18.12-.37.23-.56.34.17-.15.34-.28.51-.41l.53-.39.54-.36c.15-.09.3-.19.45-.27l.11-.06Z" style="fill:#7E57C2"></path><path d="M177.1,191.51l-.56-.34-.54-.36c-.18-.13-.36-.25-.53-.39s-.28-.21-.42-.33L175,190h0l.11.06c.15.08.3.18.44.27l.54.36.53.39A5.08,5.08,0,0,1,177.1,191.51Z" style="fill:#7E57C2"></path><rect x="171.68" y="204.86" width="5.43" height="3.75" style="fill:#fff"></rect><rect x="171.68" y="204.39" width="2.16" height="0.46" style="fill:#fff"></rect></g></svg>